<?xml version="1.0" encoding="UTF-8"?>
<svg id="Layer_1" data-name="Layer 1" xmlns="http://www.w3.org/2000/svg" viewBox="0 0 3000 3000">
  <defs>
    <style>
      .cls-1 {
        fill: #fff;
      }
    </style>
  </defs>
  <path class="cls-1" d="M2877.29,996.16c-3.84-63.27-7.03-125.08-11.5-186.8-4.6-63.49.26-126.48,5.46-189.79,3.99-48.63,1.64-97.94-1.3-146.78-3.62-60.12-11.66-119.94-28-178.47-4.45-15.92-8.01-32.32-15.11-47.21-2.94-6.17-13.8-12.13-21.53-12.7-23.05-1.7-46.39-1.66-69.52-.48-29.76,1.52-59.37,5.55-89.12,7.1-27.69,1.44-39.06,19.99-47.46,39.24-18.18,41.68-18.15,86.08-11.46,129.38,9.12,59.09,28.54,115.95,54.68,170.72,31.08,65.12,53.91,132.65,61.82,203.7,2.6,23.32-1.37,47.22-1.06,70.83.4,29.81-.85,60.02,3.87,89.33,9.26,57.55-1.06,111.45-30.1,161.86-14.14,24.54-39.33,36.82-70.32,39.21-57.01,4.4-108.95-9.05-156.08-37.71-14.34-8.72-25.88-22.11-36.91-34.71-40.82-46.65-50.81-102.23-47.76-159.8,1.48-27.86,7.85-56.29,17.68-82.64,5.29-14.18-.76-20.71-6.52-30.12-3.1-5.06-5.05-10.72-7.53-16.11,6.08-1.68,12.16-3.39,18.25-5.05,13.16-3.58,26.47-6.75,39.43-10.86,7.28-2.31,13.84-6.52,21.01-9.24,13.62-5.18,29.45,1.41,34.78,14,8.49,20.05,17.49,39.94,25.27,60.23,1.85,4.84,1.98,13.12-1.16,15.97-3.51,3.18-12.1,3.68-17.64,2.34-11.13-2.7-21.64-7.53-32.49-11.3-13.05-4.54-23.59-3.94-28.58,10.88-18.5,54.96-19.64,108.95.09,164.73,15.45,43.68,47.45,70.47,90.05,84.13,52.69,16.9,110.17,11.5,133.15-56.59,10.7-31.7,9.55-62.86,6.16-95.67-4.69-45.38-3.38-91.41-2.59-137.13,1.1-63.51-16.34-122.7-40.94-181.31-22.05-52.55-39.75-106.68-59.57-160.05-17.41-46.87-24.06-95.23-19-144.29,2.56-24.83,11.46-49.06,17.05-73.66,2.35-10.35,4.58-20.89,5-31.41.56-13.83,7.39-22.04,22.68-23.2,39.66-3.02,79.32-5.97,119.01-8.62,26.46-1.77,52.97-4.26,79.45-4.21,58.19.11,87.21,23.46,99,76.13,7.99,35.7,20,70.82,25.17,106.83,7.74,53.95,11.15,108.44,16.18,162.71,1.38,14.84,1.49,29.78,3,44.6,4.53,44.36-7.29,87.7-9,131.6-1.49,38.07-.3,76.29,1.2,114.4,2.77,70.75,7.06,141.45,9.69,212.2.55,14.71-2.76,29.66-5.36,44.33-6.27,35.4-10.57,71.35-20.44,105.9-14.42,50.45-17.55,103.84-43.36,151.26-8.38,15.4-20.28,29.16-30.76,43.55-6.17,8.48-14.63,15.98-18.74,25.2-21.08,47.28-63.94,61.18-113.39,68.39-37.14,5.42-72.6-2.5-108.79-5.58-22.58-1.92-45.38-1.6-67.94-3.61-39.38-3.52-69.87-22.41-101.16-44.55-33.85-23.95-57.93-54.94-86.33-82.71-54.77-53.56-95.23-115.29-118.42-186.54-11.33-34.8-29.16-68.26-36.18-103.67-8.07-40.64-11.04-82.89-9.5-124.23,1.4-37.5,12.51-74.63,17.9-112.1,1.95-13.58-.11-27.67-.62-41.53-1.11-30.18-1.8-60.4-4.01-90.52-.63-8.52-6.46-16.61-8.97-25.14-4.96-16.8-9.83-33.65-13.7-50.68-5.45-23.97-10.5-48.05-14.71-72.23-5.46-31.34-10.11-62.8-14.76-94.26-2.1-14.24-2.88-28.65-5.07-42.87-3.74-24.36-8.72-48.56-12.1-72.96-5.55-40.1-12.27-79.65-32.04-116.58-3.22-6.02,1.3-18.33,6.57-24.57,3.35-3.97,15.43-4.34,22.32-2.41,17.95,5.02,27.53,18.18,31.81,34.76,4.87,18.87,10.74,37.59,14.21,56.68,4.77,26.26,7.35,52.86,11.48,79.23,5.41,34.53,11.46,68.96,17.13,103.45,3.07,18.66,5.28,37.47,8.96,56.02,9.79,49.31,20.82,98.4,30.06,147.79,6.04,32.27,11.96,64.78,13.99,97.4,1.74,27.94-1.03,56.27-3.89,84.25-2.02,19.73-8.5,39.04-11.33,58.74-9.5,66-7.1,130.77,21.2,193.56,13.15,29.18,22.03,60.01,33.53,89.86,3.48,9.04,8.86,17.53,14.06,25.9,16.01,25.79,30.14,52.92,49.15,76.67,20.33,25.4,44.65,48.2,68.61,70.89,17.66,16.72,35.6,34.4,56.87,46.31,30.11,16.86,63.25,27.94,99.96,28.83,27.52.67,55.03,9.05,82.32,8.13,27.04-.91,54.46-7.28,80.37-15.1,11.1-3.35,19.28-16.03,27.9-25.2,9.75-10.38,17.98-22,27.8-32.33,23.81-25.05,37.75-55.02,46.17-86.55,11.96-44.84,20.5-90.47,30.55-135.76,5.22-23.53,11.81-46.87,15.44-70.61,3.66-23.91,4.44-48.2,6.37-71.04Z"/>
  <path class="cls-1" d="M2701.05,1705.73c14.97,5.36,18.57,19.38,20.63,32.52,1.42,9.1-5.19,12.66-14.63,12.32-19.84-.74-39.69-.85-59.49-2.1-10.09-.64-18.32-5.17-18.85-16.05-.7-13.91-8.29-23.58-20.35-31.14-5.02-3.12-9.29-7.29-13.76-11.13-27.86-23.91-60.13-41.38-97.59-46.09-11.45-1.42-27.56,7.95-36.7,16.73-13.44,12.91-27.75,11.02-42.7,8.63-9.26-1.48-18.02-4.88-25.91-9.63-24.04-14.48-44.44-6.87-63.16,9.14-18.87,16.18-26.9,36.66-19.99,59.89,6.91,23.15,16.13,45.69,24.51,68.44.32.87.76,1.7,1.25,2.5,1.72,2.82,5.24,4.26,8.65,3.54,11.15-2.37,22.09-3.86,31.48-8.25,24.85-11.55,49.59-7.19,75.03-3.82,23.17,3.07,31.55-.91,34.66-16.79.76-3.82-1.91-7.48-5.98-8.4-21.86-4.92-33.24-18.17-29.49-36.66,1-4.88,7.65-10.49,13.1-12.51,12.68-4.66,26.67-6.28,39.24-11.13,14.14-5.45,24.49-3.43,33.16,8.12,9.14,12.17,19.63,23.58,27.48,36.38,3.46,5.64,4.64,15.39,1.57,20.54-2.29,3.82-13.1,3.43-20.16,4.56-.25.04-.53.08-.78.11-2.8.23-5.32,1.7-6.59,4.05-7.19,13.38-13.63,25.57-20.35,37.61-8.35,14.95-22.83,21.09-40.51,18.04-33.73-5.83-67.21-8.63-99.88,5.17-15.22,6.44-13.76,18-12.97,30.04.4,6.08.66,17.09-1.19,17.51-9.16,2.06-19.42,2.95-28.62,1.23-27.9-5.22-27.52-26.92-30.87-46.98-5.75-34.49-12.28-68.99-30.21-100.3-8.63-15.09-18-29.87-27.92-44.25-9.82-14.2-42.68-22.79-63.71-17.53-7.99,2.01-16.54,3.1-23.77,6.53-6.93,3.29-13.97,8.14-18.27,13.99-6,8.16-8.67,16.56-21.43,20.9-7.4,2.54-13.17,18.02-13.46,27.84-.85,27.67,1.02,55.31,17.32,80.39,7.89,12.13,17.6,19.65,32.9,19.53,55.19-.4,99.16,48.87,108.95,91.5,6.93,30.08,18.23,59.32,27.99,89.09.89,2.71,3.35,4.64,6.34,5.13,21.16,3.56,33.9,19.36,31.76,41.55-.36,3.69-2.69,7.67-5.28,10.64-9.01,10.2-18.34,20.16-27.9,29.91-6.72,6.85-13.82,18.55-21.05,18.74-16.71.42-31.46-7.46-39.35-23.24-2.97-5.89-6.64-12.59-12.08-16.13-18.76-12.21-22.35-29.47-19.95-48.4.45-3.5,8.23-8.31,12.95-8.69,3.39-.25,6.91,1.19,10.81,2.93,3.94,1.76,8.69.21,10.58-3.46,1.25-2.42,2.2-4.64,2.06-6.83-2.65-39.52-6.98-78.8-29.98-113.72-14.61-22.2-36.08-31.53-64.13-31.1-23.05.34-34.68-17.49-46.39-31.65-28.94-35-38.73-75.54-33.05-119.13,1-7.51,5-14.61,7.17-22.01,3.26-11.19,6.11-22.47,9.2-33.71.93-3.37,1-8.46,3.37-9.75,17.6-9.67,34.88-20.48,53.83-27.09,11.49-4.03,24.21-5.07,37.97-6.51,6.23-.66,9.22-7.44,5.26-11.96-14.71-16.81-28.07-31.61-40.24-47.24-12.61-16.18-23.62-33.5-34.73-50.65-28.79-44.37-54.36-90.42-65.6-141.41-10.24-46.47-17.7-93.58-23.83-140.67-4.22-32.5-5.58-65.47-5.58-98.22-.02-67.23-2.37-134.79,3.94-201.58,5.81-61.52,20.14-122.54,33.5-183.24,20.73-94.15,16.62-186.31-20.1-276.44-27.94-68.52-36.08-139.82-37.95-212.22-.11-4.62-.23-9.29-1.1-13.82-2.04-10.56-1.12-24.08-7.91-30.55-5.07-4.83-20.31-.11-31.02-.28-54.13-.89-108.27-2.2-162.4-2.88-25.74-.32-28.79,3.88-24.25,26.73,2.88,14.65,4.73,29.47,5.64,44.33,2.9,47.77,4.83,95.57,7.91,143.34,2.86,44.78,6.85,89.49,10.11,134.24,1.29,17.77,1.25,35.62,3.05,53.34,1.42,13.65,4.45,27.18,7.38,40.66,2.84,13.06,7.72,26.35-6.76,36.23-3.12,2.12-9.31,4.01-11.85,2.59-16.45-9.29-31.7-18.95-42.32-35.62-22.66-35.6-47.13-70.34-73.18-103.9-13.06-16.81-37.25-21.45-57.01-19.17-29.87,3.48-52.13-9.03-74.18-21.75-43.8-25.29-85.29-54.04-116.27-92.99-15.94-20.06-28.85-42.32-41.89-64.2-16.3-27.37-30.89-55.63-47.38-82.92-2.84-4.71-11.36-8.86-17.47-9.09-37.5-1.51-69.41-16.94-106.85-19.08-14.52-.83-48.32-10.16-72.21-21.5,6.11,62.01,10.98,124.19,17.05,186.21,2.57,26.39-4.26,39.77-23.24,40.56-10.83.45-18.44-2.65-18.32-18.81.06-8.71-2.18-17.43-2.67-26.2-.51-8.78-.11-17.64-.11-26.48.49-.04,1-.11,1.48-.15-3.88-57.22-8.16-114.4-11.36-171.68-.7-12.4.49-26.23,4.47-37.46,3.07-8.63,9.12-12.68,14.44-8.8,32.42,12.91,104.94,53.68,137.87,54.08,17.58.21,35.13,1.74,52.66,2.93,5.51.36,11.79,3.54,16.28,1.97,21.05-7.44,33.41,5.81,46.68,16.05,3.52,2.71,6.32,9.43,5.26,13.36-3.07,11.62,3.52,19.08,8.97,28.26,14.97,25.14,29.53,50.65,41.94,76.94,27.14,57.65,73.33,98.2,131.61,127.52,11.62,5.85,27.43,5.13,41.41,6.28,47.07,3.9,85.86,21.52,114.55,57.01,5.02,6.21,10.2,12.34,15.65,18.36,4.92,5.45,14.48,1.8,13.93-5.3-9.75-122.69-6.25-246.18-28.9-369.91-.61-3.39,1.36-6.7,4.79-8.04,12.47-4.86,24.11-13.31,43-12.55,55.86,2.29,111.98-.78,167.99-2.08,7.06-.15,14.08-2.4,21.09-3.73,1.08-.21,2.4-1.4,3.03-1.1,22.83,10.83,53.11,3.77,71.34,24.23,4.9,5.49,4.64,15.43,5.53,23.45,6.55,59.19,11.58,118.55,19.8,177.54,3.14,22.56,12.74,44.44,20.5,66.29,19.1,53.64,33.92,107.78,37.55,164.71,3.12,49.33-2.16,97.23-13.04,145.35-11.75,52.01-21.99,104.37-30.21,156.95-3.77,24.06-1.08,48.99-1.44,73.52-.76,51.48-2.06,102.95-2.16,154.43-.04,22.56,1.12,45.09,3.27,67.57,3.31,34.56,7.4,69.09,12.44,103.48,8.54,58.22,33.18,111.83,63.07,162.57,26.67,45.31,58.03,88.56,99.66,124.22,9.16,7.84,18.59,15.65,12.51,30.59-1.1,2.71,3.88,7.55,8.82,12.49,3.2,3.18,8.69,3.12,11.77-.19,10.71-11.41,20.1-22.01,30.61-31.55,22.88-20.73,56.27-25.46,85.52-13.46,6.08,2.5,12.59,4.2,18.38,7.12,14.46,7.36,24.21,5.3,35.17-7.65,11.02-13.02,27.14-17.28,47.36-14.78,56.14,6.98,98.63,37.1,142.41,65.93"/>
  <path class="cls-1" d="M371.63,1468.56c18.72,7.84,33,6.81,43.56-8.36,13.15-18.88,33.31-28.32,52.3-39.03,42.73-24.08,88.77-39.29,139.81-37.58,2.02.07,4.08-.71,10.99-2.02-8.54-7.85-14.57-13.75-21-19.24-14.59-12.48-30.88-23.57-43.65-37.46-11.97-13.01-11.51-29.63-7.87-46.56,5.8-26.97,9.11-54.38,14.36-81.46,4.07-21.03,9.46-41.85,14.33-62.74,1.61-6.92,4.96-13.84,4.78-20.7-.26-9.59-6.82-15.34-17.82-13.29-34.45,6.42-65.96,20.62-90.67,42.71-11.17,9.99-11.33,30.27-17.4,45.58-17.31,43.71-31.3,89.09-67.18,124.09-12.71,12.4-27.74,20.3-47.29,18.7-8.24-.67-16.65.59-24.97.48-21.95-.28-39.89,6.68-52.84,23.77-4.49,5.92-30.73,5.69-37.72-1.23-7.72-7.64-6.14-16.3.1-25.13,20.23-28.62,48.3-44.55,85.13-40.84,35.77,3.6,52.67-17.59,64.54-41.24,17.07-33.99,37.03-67.34,40.8-106.32,1.44-14.93,9.61-28.66,23.76-39.22,31.39-23.43,66.74-38.73,105.71-45.91,30.17-5.56,64.52,16.43,76.45,43.41,7.17,16.22,6.4,31.79,3.11,48.02-5.26,26-10.99,51.92-15.78,77.99-4.27,23.23-8.68,46.54-10.65,69.98-.7,8.4,3.15,19.35,9.21,25.49,8.73,8.85,21.19,14.65,32.38,21.27,16.08,9.51,26.89,22.22,31.56,39.66,1.37,5.11,4.21,11.32,8.55,14.09,38.57,24.69,75.94,50.83,122.41,63.23,41.69,11.13,83.79,10.34,125.6,7.5,35.62-2.42,71.57-8.38,105.88-17.58,45.49-12.2,89.6-28.87,134.09-44.17,6.46-2.22,11.16-8.78,17.6-11.09,22.58-8.11,29.67-4.8,48.79,20.23-4.34,17.96-17.61,24.81-35.63,30-34.14,9.83-66.76,24.21-100.94,33.88-34.04,9.62-69.08,16.34-103.93,23.24-22.48,4.45-45.3,8.26-68.17,10.03-35.42,2.73-71.05,2.63-106.1-4.03-47.19-8.96-88.19-29.9-129.59-52.6-42.91-23.53-90.79-35.17-142.89-19.6-43.73,13.07-79.79,35.04-109.66,66.4-14.63,15.36-21.59,32.97-20.16,55,2.94,45.2,1.87,90.6,3.48,135.89,1.85,51.98,5.06,103.91,7.16,155.88.83,20.64-.13,41.33.43,61.98.61,22.52,2.04,45.02,6.88,69.07,8.83-11.96,18.22-23.59,26.34-35.95,10.44-15.88,17.47-18.65,35.1-8.94,16.63,9.15,32.58,19.47,48.15,30.12,9.24,6.33,16.55,9.01,25.8-.08,17.42-17.12,35.73-33.45,53.44-50.31,8.42-8.01,22.85-8.82,32.85-.15,6.42,5.56,11.48,12.53,16.83,19.09,13.93,17.06,27.69,34.24,44.17,54.66,13.03-15.73,26.59-28.66,35.67-43.9,13.14-22.06,31.93-26.47,52.44-9.84,17.44,14.14,35.78,27.31,53.13,41.53,8.39,6.88,13.52,5.16,17.96-3.16,4.42-8.28,8.7-16.63,13.03-24.96,15.23-29.28,14.84-28.53,49.78-11.41,35.45,17.37,55.32,47.52,70.74,80.24,26.04-4.36,32.76,0,34.47,24.79,1.37,19.88,1.44,39.91.62,59.82-.7,17.08-7.81,20.87-24.78,14.28-19.85-7.71-39.87-15.29-58.75-24.75-5.57-2.79-10.27-11.65-10.63-17.96-.89-15.78,1.89-31.71,1.31-47.53-.34-9.45-3.63-18.97-6.83-28.08-1.23-3.52-6.38-5.69-8.85-9.04-5.62-7.62-10.14-6.77-14.58.78-9.25,15.77-17.91,31.9-28.16,47.1-3.49,5.18-10.76,10.73-16.74,11.19-6.09.47-14.11-3.82-18.88-8.26-20.59-19.15-40.14-39.26-60.42-58.71-8.68-8.32-14.2-.58-18.62,4.92-13.07,16.28-25.53,32.99-38.17,49.56-11.09,14.53-23.92,15.6-35.83,2.38-13.42-14.9-26.79-29.87-39.34-45.4-6.5-8.04-11.15-17.37-19.13-30.1-24.04,20.83-45.33,38.48-65.55,57.13-10.75,9.92-18.14,11.04-29.37,1.81-17.7-14.55-35.73-28.77-56.17-45.18-13.09,17.46-24.49,32.83-36.09,48.06-4.01,5.27-7.55,13.15-13,14.71-13.61,3.89-13.78,11.87-13.28,22.38,1.79,37.64,2.7,75.31,4.24,112.96,2.58,63.37,5.57,126.72,7.96,190.1.74,19.54.42,39.12-.03,58.67-.36,15.87,5.54,27.46,21.31,35.21,5.54,2.72,10.81,8.96,12.63,14.59,5.55,17.18,17.77,28.41,35.69,30.59,18.61,2.26,36.29-5.29,44.68-21.35,12.68-24.26,22.93-49.66,33.21-74.93,16.71-41.09,43.3-57.54,90.23-57.3,19.36.1,38.76-1.91,49.49,16.64,3.61,6.23,5.51,16.99,2.06,22.08-3.74,5.51-14.47,7.38-22.53,9.68-3.12.89-7.35-1.25-10.98-2.27-42.07-11.76-60.14,15.16-72.8,43.98-3.92,8.93-5.08,18.94-7.31,28.49-8.59,36.79-31.08,63.06-69.5,75.57-21.74,7.08-43.75,4-63.73-7-9.98-5.5-19.04-12.42-28.77-18.34-3.02-1.84-6.99-2.26-10.28-3.79-9.31-4.3-18.49-8.83-27.7-13.32-.41-.2-.43-1.08-.85-1.29-30.26-15.3-21.74-42.36-22.45-66.03-2.9-96.4-4.23-192.84-7.7-289.21-4.05-112.28-10.09-224.5-14.55-336.76-2.39-60.2-3.14-120.47-4.92-180.69-.99-33.39-2.51-66.77-4.08-100.14-.16-3.45-1.76-7.12-3.63-10.18-10.78-17.62-9.24-33.12,9.78-46.96Z"/>
  <path class="cls-1" d="M2373.68,2713.26c26.3-71.37,56.19-140.52,53.79-216.84-1.66-53.08.2-106.24-.93-159.34-.6-28.1-5.69-56.12-6.06-84.21-.35-26.38,2.79-52.79,4.56-79.18.18-2.65,2.15-5.23,2.17-7.86.15-15.33,2.39-27.91,22.75-32.79,15.39-3.69,28.26-4.86,43.94.69,25.79,9.12,37.26,25.11,41.82,49.19,7.13,37.62,17.43,74.73,24.82,112.31,3.75,19.05,6.58,38.8,5.43,58-2.01,33.48,9.02,64.23,20.61,94.53,6.87,17.97,18.56,35.35,31.92,50.05,28.66,31.55,35.87,109.87,3.58,144.97-3.98,4.33-7.86,10.45-7.96,15.81-.54,26.48.1,52.99.61,79.49.08,4.23,2.18,8.41,2.42,12.65,1.35,23.89,10.88,30.76,37.41,28.77,23.35-1.75,46.91-1.27,70.19-3.45,7.4-.69,16.52-5.16,20.93-10.6,64.93-79.91,77.24-171.37,74.21-268.19-1.97-63.22-22.3-121.08-42.99-179.51-13.08-36.92-29.86-72.73-42.79-109.68-7.33-20.96-9.98-42.46-3.07-65.39,11.77-39.07,29.96-74.16,55.68-107.25,22.38-28.79,41.38-60.19,58.46-91.99,21.81-40.6,21.35-85.04,17.3-128.97-2.98-32.26-16.93-60.98-36.16-88.44-22.71-32.41-40.06-68.35-24.87-107.46,9.53-24.53,25.02-47.59,41.02-69.33,9.8-13.33,25.28-23.28,38.87-34.04,7.35-5.82,14.21-4.5,21.12,2.91,21.62,23.18,20.65,21.66-4.04,42.96-28.08,24.22-55,51.44-54.83,89.38.08,17.89,6.53,38.47,17.5,53.14,51.1,68.38,60.52,143.37,45.01,222.14-4.18,21.24-15.7,41.92-27.22,61.15-24.04,40.14-50.46,79.07-75.64,118.64-27.55,43.3-33.83,87.6-10.4,134.82,11.85,23.88,19.44,49.55,29.11,74.36,5.68,14.57,10.9,29.36,17.66,43.51,19.65,41.12,25.92,84.89,31.09,128.87,6.98,59.43,3,118.52-10.09,176.89-11.26,50.2-38.11,93.97-70.92,134.91-5.19,6.47-12.08,12.89-13.08,21.1-.39,3.23-1.01,3.83-5.44,4.61-12.91,2.29-26.15,1.85-38.97-.96-18.37-4.03-37.15-2.7-56.34-.7-20.75.99-42.16,1.65-62.51,1.31-38.09-4.37-53.06-20.88-53.6-58.19-.59-40.44.58-80.93,2.48-121.33.43-9.16,5.47-18.98,11.04-26.93,23.2-33.11,18.74-67.03,3.34-100.49-6.87-14.93-19.96-27.33-28.08-41.89-25.49-45.72-30.31-95.59-35.62-145.88-4.74-44.88-15.7-89.21-24.31-133.71-.85-4.41-4.46-8.36-7.28-13.41-16.29,20.13-15.06,41.87-13.88,63.24,1.67,30.22,5.29,60.36,6.69,90.59,2.43,52.41,5.58,104.88,5.11,157.3-.48,53.07-7.09,105.49-26.42,156.5-14.4,38.01-31.48,76.1-28.52,118.07.38,5.35-2.38,14.09-6.5,15.93-16.49,7.35-33.92,16.2-51.35,16.89-7.26.29-22-18.47-22.02-28.59-.08-47.02-22.99-87.87-37.58-130.82-12.92-38.03-29.06-75.14-43.83-112.64-28.59-72.61-57.24-145.19-85.81-217.81-28.38-72.15-56.73-144.32-85.01-216.5-16.29-41.57-32.91-83.04-48.47-124.84-13.2-35.45-24.22-71.59-37.84-106.89-9.92-25.73-22.94-50.43-33.75-75.88-9.18-21.59-16.81-43.73-25.78-65.4-22.4-54.14-41.7-109.68-68.91-161.71-21.03-40.22-53.84-74.39-100.06-94.37-28.32-12.25-47.9-31.22-59.49-58.86-14.47-34.49-32.61-67.67-48.56-101.66-3.68-7.84-4.64-16.72-7.31-25-6.49-20.13-14.06-39.99-19.59-60.33-3.04-11.17-7.04-24.35,6.24-32.67,4.29-2.69,14.96-3.28,17.54-.61,9.06,9.36,20.41,19.78,22.73,31.2,9.72,47.96,24.88,94.08,47.11,138.27,17.1,33.99,35.72,65.88,78.78,79.19,29.3,9.05,44.45,34.65,62.22,55.8,29.46,35.04,54.54,71.89,63.77,117.22,4.75,23.34,19.94,44.8,29.67,67.38,14.23,33.03,28.72,66,41.39,99.55,11.9,31.51,21.17,63.85,32.39,95.59,6.17,17.44,14.47,34.23,20.92,51.6,16.44,44.27,31.98,88.82,48.65,133.02,15.92,42.21,33.4,83.92,49.01,126.22,8.37,22.7,13.03,46.56,21.62,69.18,6.72,17.7,17.94,33.93,25.3,51.47,8,19.07,13.27,39.09,20.78,58.35,7.47,19.19,16.76,37.78,24.34,56.93,37.92,95.82,75.53,191.75,113.35,287.6,1.09,2.76,3.3,5.15,5.41,8.34Z"/>
  <path class="cls-1" d="M105.44,1337.96c-.04-3.8.63-7.58,1.95-11.14,18.46-49.79,31.31-93.96,79.23-124.86,4.96-3.2,10.46-6.48,16.2-7.69,53.54-11.28,76.72-47.7,90.76-92.5,5.07-16.18,11.5-32.11,18.85-47.52,9.78-20.5,24.04-37.96,44.1-51.28,14.86-9.86,28.53-21.25,43.01-31.61,36.52-26.12,79.98-36.93,123.73-45.55,21.81-4.3,44.54-4.67,67.02-5.89,8.2-.44,21.04,1.89,28.52,5.28,30.6,13.87,59.19,30.43,80.18,56.37,4.25,5.26,8.53,11.46,9.73,17.73,7.57,39.84,17.65,79.62,20.45,119.81,4.08,58.38,25.79,109.97,58.25,158.6,4.5,6.74,11.87,12.83,19.42,16.65,30,15.19,60.64,29.29,90.95,43.96,10.32,4.99,21.52,9.24,30.13,16.16,5.31,4.27,8.65,12.95,8.7,19.68.03,4.03-7.53,10.88-12.49,11.59-9.24,1.32-20.45,1.62-28.42-2.11-30.54-14.28-59.48-31.55-90.22-45.4-31.73-14.3-52.94-37.26-66.93-65.71-20.27-41.22-43.53-81.76-50.24-127.54-3.8-25.93-4.89-52.21-8.47-78.18-2.73-19.79-5.79-39.79-11.67-58.91-9.23-29.98-60.28-53.26-93.58-51.25-40.29,2.43-76.02,17.06-113.21,27.92-11.77,3.44-22.39,11.11-32.64,18-12.96,8.71-24.41,19.4-37.57,27.79-27.63,17.62-36.5,45.67-48.17,72.15-7.29,16.55-12.97,33.7-20.13,50.3-11.94,27.69-32.55,48.79-60.05,63.75-7.36,4-16.6,4.93-24.83,7.65-41.21,13.64-66.14,43.14-86.55,77.01-.54.9-1.7,2.05-1.44,2.71,9.41,24.26-6.85,46.58-6.04,70.28,1.31,38.49,1.27,77.01,2.16,115.52,1.63,70.64,3.76,141.28,5.23,211.93,1.21,58.14,1.79,116.29,2.6,174.44.9,64.91,1.75,129.82,2.59,194.73,1.11,85.16,2.07,170.33,3.31,255.49,1.01,69.09,1.94,138.19,3.7,207.27,1.06,41.58,3.69,83.12,5.5,124.68,1.32,30.19,2.6,60.39,3.62,90.59.64,19.09,1.56,18.15,21.67,15.32,25.91-3.65,53.57-3.62,76.06,9.86,27.4,16.42,55.28,13.31,81.5,4.45,52.4-17.71,102.83-13.2,154.4,1.61,55.78,16.03,48.34,5.78,58.31-28.03,8.23-27.94,20.01-55.57,34.57-81.2,29.99-52.76,83.2-68.53,142.44-54.67,8.72,2.04,17.7,9.19,22.77,16.31,3.08,4.33,1.06,14.58-2.73,19.45-3.02,3.88-12.67,5.93-18.54,4.85-57.81-10.62-95.02,8.46-119.24,58.53-11.63,24.05-19.97,47.99-24.08,74.18-5.01,31.92-23.43,42.05-57.81,35.43-15.6-3-30.75-8.03-46.1-12.14-47.64-12.73-93.79-5.45-140.27,6.97-30.3,8.1-60.09,6.44-88.89-10.08-32.27-18.51-62.33-12.23-91.18,10.89-1.3,1.05-2.75,1.94-4.31,2.71-15.97,7.95-35.35-.29-41.74-16.94-1.84-4.78-3.61-9.39-5.08-13.19-1.33-3.44-2.03-7.07-2.07-10.76l-16.94-1444.45Z"/>
  <path class="cls-1" d="M879.58,402.22c55.59,16.14,109.31,29.61,160.06,52.74,14.85,6.77,33.58,5.27,48.54,11.89,12.84,5.69,24.03,16.57,33.3,27.33,2.5,2.91-3.07,18.77-7.58,20.11-20.51,6.07-30.49,22.76-42.44,36.9-16.91,20.03-32.64,41.21-46.69,63.24-3.7,5.8-2.45,18.74,1.88,24.65,19.67,26.86,40.72,52.81,62.27,78.29,40.19,47.52,77.89,96.71,110.86,149.39,6.02,9.63,4.54,15.8-3.3,22.37-18.39,15.43-37.04,30.59-54.94,46.56-8.87,7.91-15.53,18.24-24.53,25.98-49.92,42.94-82.05,94.79-68.49,161.34,6.57,32.27,26.58,61.93,40.65,92.7,1.33,2.92,4.51,5.11,5.51,8.06,3.41,10.1,12.81,20.36-2.44,29.72-20.94,12.86-27.55,13.69-39.14-2.31-39.16-54.06-63.66-113.43-58.75-180.88,3.23-44.3,19.72-83.03,55.57-113.63,30.38-25.93,57.82-55.23,85.69-83.85,3.23-3.32,3.52-13.47.75-17.66-18.56-28.15-37.1-56.46-57.94-82.98-33.4-42.48-68.7-83.53-102.95-125.37-13.63-16.64-13.48-40-1.24-55.98,23.12-30.21,45.83-60.73,69.8-92.57-21.02-8.66-42.18-18.62-64.22-26.13-24.76-8.44-50.09-15.55-75.58-21.54-18.09-4.25-36.79-6.84-55.36-8.1-21.28-1.45-41.49-22.33-39.33-43.18.2-1.98.9-4.25,2.16-5.73,19.44-22.78,39.61-45,58.12-68.47,4.74-6.01,7.56-16.74,5.68-23.89-5.47-20.88-13.43-41.16-21.04-61.46-7.56-20.16-27.03-15.6-41.39-15.25-77.67,1.91-155.3,5.36-232.92,8.87-77.01,3.48-153.98,7.77-230.98,11.45-20.14.96-40.43,0-60.44,1.99-6.79.67-15.33,6.23-18.94,12.03-12.09,19.41-22.05,40.09-33.31,60.01-24.11,42.67-48.42,85.23-72.89,127.7-5.57,9.67-7.5,18.12-5.24,30.29,5.35,28.71,6.11,58.22,9.21,87.36,3.73,35.06,6.99,70.2,12.25,105.05,5.41,35.86,12.94,71.42,19.67,107.09.59,3.14,1.96,6.2,3.34,9.14,13.65,28.99,10.16,36.9-21.92,49.45-27.17,10.62-45,37.84-44.85,66.59.32,62.05.1,124.1.17,186.16,0,4.88-.86,10.43,1.13,14.53,6.8,13.99,3.45,22.05-9.64,31.87-10.9,8.17-19.32,8.59-30.13,4.58-12.91-4.79-22.79-22.28-21.7-35.35,2.59-31.2,5.5-62.41,6.46-93.68,1.13-36.98.92-74.03.07-111.02-.3-13.2-4.29-26.3-6.33-39.49-1.49-9.64,2.61-14.79,11.63-20.36,16.71-10.32,32.43-22.81,46.36-36.54,5.74-5.66,8.69-17.13,7.91-25.51-3.33-35.56-9.15-70.88-12.9-106.41-5.41-51.31-9.32-102.78-15.03-154.06-1.31-11.81-8.15-22.94-10.89-34.73-1.97-8.45-5-19.49-1.31-25.93,28.14-49.07,57.99-97.2,86.95-145.82,12.01-20.15,23.82-40.48,34.22-61.44,2.47-4.99-.17-13.13-2.07-19.35-5.89-19.19.35-24.21,20.75-23.31,28.12,1.24,56.43-1.11,84.64-2.28,47.65-1.97,95.28-4.2,142.92-6.34,72.61-3.27,145.21-6.66,217.82-9.8,31.79-1.37,63.63-1.86,95.4-3.52,13.66-.71,27.21-4.63,40.83-4.76,9.72-.1,19.7,2.96,29.18,5.84,46.14,14.01,53.1,57.01,70.33,92.33,3.08,6.31,4.42,13.44,7.64,19.66,7.2,13.96,4.07,26.17-5.12,37.82-13.51,17.13-27.34,34.04-40.23,51.6-3.46,4.71-4.04,11.46-5.52,15.99Z"/>
  <path class="cls-1" d="M1168.4,2134.09c50.63-.72,100.97,3.56,151.95-4.94,40.61-6.77,82.76-5.74,124.26-7.59,17.47-.78,35.35-1.86,52.37.87,7.07,1.13,12.36,11.85,18.46,18.22-5.41,4.12-10.38,11.04-16.3,11.83-17.96,2.42-36.35,1.93-54.48,3.54-39.98,3.55-79.82,8.93-119.87,11.22-34.12,1.95-68.46,1.01-102.7.63-19.74-.22-39.47-1.87-64.14-3.12,6.47,7.48,9.42,12.92,14.15,16.04,40.02,26.43,53.74,66.54,65.86,107.59,18.39,62.28,9.15,121.32-26.23,176.38-30.84,47.99-69.8,89.52-118.49,123.13-16.12,11.13-29.48,25.7-44.1,38.7,1,1.66,2,3.32,3,4.98,21.13-7.49,42.65-14.17,63.31-22.66,41.06-16.86,80.66-15.66,117.78,8,25.62,16.33,49.59,16.12,77.57,4.3,52.44-22.15,107.94-33.85,166.06-30.83,28.52,1.48,47.8,19.47,68.14,35.24,8.89,6.89,17.04,15.87,27.33,19.59,10.38,3.75,23.86,5.04,34.47,2.3,26.54-6.84,52.4-16.12,78.2-25.23,44.3-15.63,85.98-4.97,127.76,9.21,22.11,7.5,44.74,13.71,67.3,20,13.53,3.77,27.72,5.68,40.99,10.04,23.66,7.77,43.4-.48,59.44-14.29,25-21.52,50.85-43.28,70.53-68.81,29.43-38.17,20.99-81.03,6.33-122.71-2.73-7.77-7.89-15.08-9.04-22.97-.75-5.12,2.68-14.72,6.09-15.53,5.46-1.29,15.11,1.21,18.42,5.3,35.59,44.03,47.38,94.32,33.18,146.98-5.56,20.6-24.7,38.18-38.28,56.75-23.63,32.3-57.73,53.78-92.43,74.1-7.01,4.11-18.56,4.42-27.19,2.76-35.56-6.85-70.87-14.84-106.09-23.11-8.1-1.9-15.19-7.29-23.21-9.81-23.32-7.33-46.63-14.88-70.4-20.73-28.45-7-52.46,9.26-78.09,15.94-17.78,4.64-33.98,14.29-51.29,20.75-31.99,11.93-57.91-.12-82.06-18.9-13.9-10.81-27.44-22.4-42.83-31.07-25.46-14.33-53.09-5.51-79.59-2.11-31.86,4.09-61.22,15.22-89.55,29.71-16.18,8.27-34.45,13.65-52.42,18.12-17.57,4.36-29.27-9.51-39.58-18.35-32.94-28.24-72.35-31.75-108.72-11.74-20.61,11.34-45.04,16.65-67.59,25.04-5.01,1.86-9.04,6.47-14.1,7.66-9.61,2.26-20.42,5.76-29.31,3.63-12.26-2.94-24.65-11.09-22.67-24.96,1-7,9.3-13.5,15.34-19.3,2.53-2.43-18.19,32.16-13.34,30.8-21.5-12.21,3.94-56.15,21.46-71,32.31-27.37,65.82-53.75,95.74-83.25,42.43-41.82,77.41-88.48,90.5-146.48,12.15-53.83-2.09-103.29-30.44-149.49-7.83-12.77-23.56-21.31-35.46-31.98-10.34-9.27-20.97-18.35-30.42-28.37-10.03-10.64-6.16-20.96,5.31-30.59,10.27-8.63,16.74-21.04,26.23-30.64,37.52-37.95,37.92-84.52,32.71-130.75-6.39-56.59-29.24-108.75-58.63-158.63-11.09-18.82-21.7-38.76-27.07-59.42-10.61-40.79-2.34-77.77,25.82-113.35,41.82-52.85,100.77-77.17,164.23-95.14,44.38-12.57,89.38-22.3,136.82-22.9,45.49-.57,90.81-2.71,134.51,10.29,29.96,8.91,56.49,24.62,72.37,51.05,3.66,6.09.35,15.79.25,23.84-8.69-.48-18.76,1.43-25.73-2.05-8.37-4.17-13.43-13.68-21.13-19.5-9.66-7.31-19.71-16.56-31.09-19.04-25.04-5.46-51.01-7.2-76.61-10.43-38.8-4.9-76.82,1.79-114.45,8.48-47.83,8.5-92.24,25.8-136.12,46-32.78,15.08-55.16,37.15-73.63,64.1-26.67,38.92-21.88,78.84,2.2,116.75,32.62,51.35,53.41,106.72,68.39,164.15,10.85,41.59,4.04,83.17-6.04,123.93-2.78,11.25-13.38,20.97-20.96,31.01-4.82,6.39-10.7,12.09-16.11,18.09,1.04,1.58,2.09,3.16,3.13,4.74Z"/>
  <path class="cls-1" d="M1719.58,1922.05c3.61-8.94,9.31-17.65,10.43-26.85,3.78-30.94-1.57-60.5-20.2-87.22-2.37-3.4-3.81-7.42-5.27-11.28-11.99-31.75-25.88-40.98-60.09-39.74-10.72.39-29.77,15.52-30.28,27.47-1.48,34.34-3.45,68.89-.89,103.08,2.95,39.44,10.86,78.53,15.99,117.85,4.12,31.62,7.21,63.35,10.92,95.02,7.86,67.02,14.32,134.23,24.28,200.98,7.04,47.22,27.42,91.5,53.59,131.81,15.5,23.86,41.92,41.64,63.7,61.9,2.57,2.39,6.78,3.56,10.46,4.59,45.17,12.58,110.74-14.96,133.91-53.6,15.47-25.8,20.19-52.91,21.23-81.46.7-19.08,2.92-38.14,2.93-57.21.02-24.11-2.25-48.22-2.19-72.32.07-29.28,2.24-58.56,2.2-87.84-.04-24.71-2.03-49.42-3-74.14-.97-24.61-2.28-49.22-2.49-73.83-.26-29.41-8.05-56.95-21.13-83.48-9.93-20.13-26.91-30.45-50.41-32.45-12.78-1.09-21.17,3.91-26.1,14.53-10.31,22.23-11.34,44.97-1.65,67.34,12.73,29.4,27.32,58.11,39.88,87.56,14.6,34.23,20.37,70.18,23.34,106.88,2.69,33.24,10.46,66.17,12.43,99.42,2.04,34.38,2.35,69.8-24.66,98.08-11.98,12.54-25.21,24.38-39.54,34.49-5.5,3.88-16.07,3.94-23.64,2.53-57.56-10.72-103.36-39.59-128.87-88.11-25.43-48.36-19.32-89.98,28.28-121.47,24.07-15.93,49.82-16.32,75.3.36,24.56,16.07,40.89,36.66,34.77,64.76-2.43,11.14-14.95,23.71-26.42,29-15.83,7.29-29-3.7-39.66-17.27,2.74-4.74,5.2-10.52,9.03-15.35,10.47-13.21,10.09-28.47-1.5-34.79-7.99-4.36-26.89,5.11-33.91,15.85-19.6,29.98-11.44,57.31,7.8,84.14,10.66,14.86,24.91,25.01,40.67,35.32,28.29,18.49,50.53,4.9,61.61-18.44,9.28-19.53,14.39-42.48,14.12-63.83-.45-34.28-5.07-68.78-11.24-102.67-7.08-38.9-17.59-77.27-27.03-115.78-1.45-5.9-4.31-11.84-7.94-16.87-29.78-41.2-42.46-86.72-30.3-134.83,9.86-39.01,35.57-65.98,93.88-45.24,49.22,17.51,81.13,52.8,91.03,100.66,6.74,32.55,5.35,66.55,7.76,99.89,1.96,27.15,5.21,54.26,5.94,81.43.63,23.6-1.8,47.25-2.29,70.89-1.39,66.95-1.28,133.95-4.22,200.84-1.44,32.69-18.73,60.98-41.49,85.58-9.61,10.38-20.69,20.13-32.82,27.84-37.51,23.83-81.35,27.63-123.03,19.62-33.35-6.42-62.88-26.53-85.22-52.72-5.47-6.42-12.21-11.91-17.53-18.42-8-9.77-16.7-19.38-22.59-30.24-26.07-48.03-42.56-99.27-52.44-151.97-6.26-33.38-7.41-67.58-10.97-101.4-4.9-46.48-9.69-92.98-14.91-139.43-6.9-61.39-15.3-122.65-20.76-184.15-2.35-26.45-.72-53.51,2.31-79.97,3.69-32.18,37.66-61.74,68.37-57.99,45.74,5.6,86,18.4,105.6,71.17,8.94,24.07,23.47,47,27.97,71.64,4.01,21.93,1.71,46.59-5.1,68.06-8.68,27.39-46.9,36.51-70.74,18.63-13.84-10.38-25.1-24.32-35.14-38.15-3.23-4.45-1.27-15.48,2.8-20.09,3.09-3.51,14.72-4.17,19.94-1.58,7.67,3.81,13.43,11.34,19.2,17.89,3.66,4.16,5.86,9.42,8.72,14.19,2.43.29,4.86.58,7.29.86Z"/>
  <path class="cls-1" d="M898.65,2820.65c-17.59-1.54-35.16-3.76-52.78-4.38-11.68-.42-23.7.36-35.13,2.55-16.39,3.14-30.27-2.26-35.94-19.4-5.58-16.88-8.9-34.62-11.04-52.21-2-16.46,4.45-28.6,22.58-36.98,24.6-11.37,46.51-27.69,70.85-39.62,17.35-8.5,22.52-23.73,24.44-37.75,1.07-7.84-10.35-21.38-19.63-25.39-23.93-10.33-47.67-24.12-76.7-18.15-12.9,2.65-22.63-2.39-26.47-15.14-3.7-12.3,2.4-33.55,11.38-38.36,1.34-.72,3.22-1.44,4.58-1.13,29.42,6.77,61.25,9.28,87.44,21.89,23,11.07,47.79,25.89,56.67,53.18,13.39,41.12-6.2,72.66-35.2,99.56-13.57,12.59-33.82,18.85-50.6,28.64-5.11,2.98-11.95,8.06-12.1,12.36-.14,3.91,7.11,9.01,12.23,11.85,5.05,2.8,11.4,4.16,17.36,4.9,51,6.3,101.64,3.05,150.69-10.55,22.52-6.25,44.48-16.69,64.13-28.82,31.19-19.26,65.87-23.02,101.15-24.05,8.75-.26,18.88,7.63,26.52,13.76,21.54,17.31,43.62,33.25,74.32,26.43,24.08-5.35,47.71-12.54,71.4-19.35,30.83-8.86,61.4-19.02,94.4-10.15.53.14,1.17.34,1.64.19,33.25-10.07,48.26,14.6,66.72,31.17,16.63,14.93,36.46,19.93,60.89,8.95,32.35-14.54,64.17-30.21,95.47-46.62,29.7-15.57,90.19-26.41,127.03,2.71,9.07,7.17,16.55,16.43,26.44,22.28,20.71,12.23,44.31,5.29,66.36,4.74,65.86-1.66,131.67-5.21,197.49-8.36,30.9-1.48,61.76-3.61,92.62-5.66,15.76-1.05,23.81,7.84,19.55,22.12-7.21,24.16-7.23,23.32-34.43,23.86-19.22.38-38.34,3.99-57.57,5.13-20.21,1.19-40.53.71-60.76,1.75-33.19,1.7-66.33,4.26-99.51,6.05-31.86,1.72-63.75,2.78-95.61,4.57-4.47.25-11.47,1.96-12.72,4.76-6.2,13.91-17.94,9.74-28.32,8.28-10.86-1.53-15-8.07-18.34-18.56-13.54-42.54-38.93-51.35-89.64-36.6-25.23,7.34-46.83,25-70.81,36.69-22.43,10.94-45.42,21.14-68.94,29.85-18.81,6.96-35.92.98-52.73-9.29-12.87-7.86-23.02-16.54-30.23-29.17-2.46-4.31-9.01-8.02-14.41-9.2-23.82-5.2-47.78-7.75-71.82.03-31.01,10.03-61.86,20.7-93.42,29.02-38.66,10.19-72.68,1.68-100.15-26.72-9.27-9.58-20.61-14-35.3-12.57-27.91,2.71-53.62,10.3-78.18,23.06-54.49,28.32-112.69,44.45-175.89,43.89Z"/>
  <path class="cls-1" d="M1936.64,1372.25c-24.26-24.76-45.74-49.18-70.08-70.81-23.49-20.88-49.94-38.9-75.09-58.18-12.79-9.81-25.84-19.36-38.28-29.55-14.57-11.93-15.77-24.77-4.88-39.57,25.62-34.82,50.53-70.11,76.93-104.4,16.34-21.23,34.9-40.98,54.5-63.77-10.12,0-17.45-.04-24.79,0-19.28.13-38.99,2.63-57.67-.4-11.27-1.83-22.85-10.69-30.68-19.24-6-6.55-6.94-16.25,3.16-25.15,25.19-22.18,48.7-45.99,72.31-71.99-5.03,1.14-10.3,1.74-15.06,3.52-19.29,7.21-42.56-5.43-47.54-24.57-2.68-10.29,2.13-13.67,10.8-14.34,43.71-3.35,85.65-13.37,127.69-24.64,9.04-2.42,26.07,10.9,34.86,20.55,8.55,9.39-1.17,18.56-10.13,25.84-33.68,27.39-67,55.17-104.65,86.27,27.74,1.31,50.43,3.49,73.07,3.1,18.68-.32,29.78,9.37,39.33,21.34,6.99,8.76,5.34,17.42-3.52,26.06-54.77,53.43-103.96,110.84-143.57,175.08-6.62,10.73-7.03,17.15,4.55,25.68,30.72,22.64,60.82,46.11,89.78,70.67,20.32,17.23,37.38,37.78,57.78,54.91,10.99,9.22,20.71,17.68,21.77,31.88.46,6.09,1.74,13.02-.65,18.26-14.69,32.18-.42,60.59,18.46,84.33,8.6,10.82,25.17,17.28,26.66,33.34,1.63,17.68,2.27,35.51,1.8,53.24-.25,9.55-6.27,14.77-18.11,11.62-23.58-6.28-56.77-42.88-58.46-65.47-.26-3.52-.94-7.91.87-10.54,16.91-24.71-1.03-43.37-12.34-63.06-4.15-7.23-10.86-13.37-14.04-20.88-4.45-10.47-8.74-21.86,7.63-28.67,3.75-1.56,5.45-7.35,7.61-10.49Z"/>
  <path class="cls-1" d="M1686.51,1019.92c-26.95.46-42.13-11.99-45.9-35.52-1.27-7.93-4.52-16.06-8.89-23-18.84-29.94-28.65-62.62-37.96-95.91-17.53-62.65-81.35-81.76-139.34-62.69-73.58,24.2-114.06,119.89-76.84,187.94,28.15,51.47,42.97,106.74,49.27,163.41,4.85,43.68,4.14,88.03,3.44,132.05-.3,18.83-6.39,37.67-10.88,56.3-1.24,5.15-5.09,10.89-9.61,14.04-20.77,14.43-41.33,29.42-63.64,41.55-20.88,11.35-45.75-3.09-48.56-25.34-1.99-15.73,10.48-21.82,21.61-25.3,38.84-12.16,58.69-33.02,60.45-72.7,1.91-43.32,1.83-86.76.92-130.12-.26-12.46-7.11-24.69-9.75-37.25-8.79-41.88-20.69-82.69-41.71-120.98-34.02-61.98-9.42-158.81,52.19-197.13,20.78-12.93,40.94-29.19,64.06-35.68,21.4-6,47.02-4.04,69.64-.05,31.64,5.58,59.36,20.43,82.65,42.37,21.36,20.12,32.35,44.93,42.09,70.58,11.9,31.32,24.34,62.54,34.27,94.41,5.95,19.11,23.15,36.8,12.48,59.02Z"/>
  <path class="cls-1" d="M893.41,720.69c.84-12.48-2.19-24.46,2.76-29.11,10.07-9.45,17.8,3.41,26.56,7.51,17.13,8.03,34.24,16.44,52.22,22.46,15.7,5.25,26.28,14.18,33.35,27.56,6.61,12.5-1.93,26.01-16.48,28.6-13.21,2.35-25.83,7.83-39.08,9.7-7.4,1.05-17.53-.2-22.92-4.35-9.56-7.35-15.21-14.66-31.47-13.71-70.06,4.08-140.32,5.07-210.51,7.15-47.11,1.39-94.22,2.72-141.34,4.06-64.84,1.85-129.68,3.7-195.19,5.57-3.13,8.78-6.35,16.35-8.49,24.18-2.99,10.95-13.48,15.33-21.44,12.19-25.59-10.1-54.02-17.55-67.48-44.04-8.22-16.18-5.43-21.9,10.34-32,10.73-6.87,20.47-15.67,28.82-25.03,14.03-15.73,22.55-16.63,37.06-1.55.74.77,1.78,1.45,2.14,2.35,8.84,21.96,27.38,20.54,48.04,19.5,67.55-3.4,135.18-5.28,202.79-7.57,67.59-2.29,135.22-3.99,202.79-6.72,36.9-1.49,73.72-4.58,107.53-6.76Z"/>
  <path class="cls-1" d="M1911.74,644.71c-13.84-7.53-28.49-13.12-39.56-22.4-6.62-5.55-9.71-16.65-10.79-25.63-4.08-34.06-6.73-68.27-9.83-102.43-1.35-14.87-2.11-29.8-3.86-44.62-4.59-38.77-9.31-77.53-14.58-116.23-1.71-12.58-5.81-24.87-7.75-37.43-.58-3.76,2.57-11.52,3.81-11.48,9.98.3,21.6-.54,29.45,3.92,11.23,6.38,12,19.18,13.74,31.29,3.99,27.91,11.37,55.41,15.22,83.33,4.57,33.11,7.08,66.47,10.09,99.76,2.69,29.7,5.32,59.41,7,89.17.59,10.44,3.74,15.16,15.7,14.12,18.17-1.58,36.45-1.98,54.63-3.43,14.05-1.12,22.6,4.44,24.55,17.1,3.29,21.39-.57,24.3-16.2,29.98-12.33,4.48-23.89,13.04-33.13,22.13-19.27,18.96-36.91,39.36-54.97,59.36-10.68,11.83-25.84,12.67-38.77,1.68-13.53-11.5-13.76-24.46-1.28-35.83,19.95-18.16,39.57-36.62,56.53-52.36Z"/>
  <path class="cls-1" d="M2481.58,1309.45c-28.84-5.23-56.98-6.36-76.5-28.73-6.12-7.02-17.02-10.35-23.52-17.19-11.04-11.62-21.52-24.06-29.71-37.49-2.84-4.65-.61-15.2,3.54-19.6,6.9-7.32,13.81-2.19,20.56,4.12,23.37,21.84,46.21,45.4,82.28,48.15,15.32,1.17,31.17,1.38,46.26-.92,25.6-3.92,50.62-11.01,76.17-15.26,39.92-6.65,70.06-30.02,97.02-54.22,19.8-17.77,30.11-44.69,44.48-67.62,3.86-6.17,6.01-13.54,10.87-18.83,8.97-9.74,18.73-8.94,27.82.83,19.08,20.51,19.34,20.65,3.95,44.74-15.22,23.82-29.04,48.72-47.05,70.62-28.34,34.45-67.56,56.38-112.21,67.38-41.35,10.19-83.84,16.41-123.96,24.02Z"/>
  <path class="cls-1" d="M1624.62,705.12c.25,15.27-7.2,21.52-17.56,17.01-12-5.23-22.57-14.02-32.36-22.64-6.2-5.46-10.86-13.01-14.42-20.37-10.62-21.98-29.67-19.6-50.1-17.16-32.22,3.85-63.37,4.21-89.36-19.95-20.5-19.07-43.36-35.99-65.74-53.23-3.11-2.39-10.81-3.11-14.12-1.2-15.42,8.89-30.09,18.92-44.95,28.65-10.14,6.64-18.1,15.71-33.28,14.42-15.76-1.33-18-11.06-21.02-21.54-3-10.43-.8-18.46,9.57-25.2,23.51-15.26,46.65-31.04,69.24-47.45,10.87-7.89,18.36-11.46,30.92-.59,22.5,19.49,48.49,35.49,71.13,54.85,28.09,24.01,59.69,28.31,95.15,20.61,29.97-6.5,35.95-3.61,53.9,20.67,14.66,19.82,30.64,38.79,45.52,58.48,3.95,5.23,6.01,11.7,7.45,14.62Z"/>
  <path class="cls-1" d="M627.89,395.83c-36.54,2.87-73.09,5.65-109.62,8.63-27.76,2.27-55.47,5.51-83.28,6.61-5.87.23-13.07-6.14-17.8-11.02-3.82-3.93-5.03-10.15-7.05-15.46-4.63-12.19,1.34-21.33,15.34-22.34,46.3-3.35,92.65-6.19,138.95-9.5,18.13-1.3,36.26-2.85,54.28-5.12,22.4-2.82,42.68,13.74,41.03,34.26-.73,9.03-16.28,17.57-31.84,13.94Z"/>
  <path class="cls-1" d="M842.43,2381.03c-7.02,2.97-14.2,7.3-22.03,8.95-7.05,1.48-17.16,2.72-21.75-.73-7.85-5.91-15.63-15.12-16.99-23.82-.63-4,13.24-12.02,21.82-14.88,57.42-19.15,104.42,4.13,151.64,31.26,29.86,17.16,45.95,42.06,58.94,70.19,6.75,14.61-.86,29.97-15.73,33.07-10.64,2.22-29.97-13.59-31.82-22.71-2.38-11.78-4.78-26.51-13.31-33.65-17.75-14.88-38.5-27.58-60.03-37.36-14.72-6.69-32.83-6.94-50.75-10.32Z"/>
  <path class="cls-1" d="M833.41,2158.66c.23,14.59-4.68,17.4-21,16.2-11.36-.83-22.97,1.89-34.5,2.29-36.16,1.23-72.35,1.76-108.48,3.38-9.51.43-18.78,4.58-28.33,5.57-6.16.64-14.85.69-18.5-2.66-6.79-6.24-12.26-14.66-15.47-23.09-4.47-11.77,2.37-20.12,16.4-20.95,49.59-2.91,99.2-5.44,148.82-7.81,11.99-.57,24.04-.18,36.05.17,9.87.29,24.85,16.72,25.01,26.9Z"/>
  <path class="cls-1" d="M590.76,459.33c3.09,30.8,5.74,62.13,9.52,93.33,2.65,21.85,7.02,43.52,10.27,65.31,1.78,11.91-3.51,20.78-16.55,22.74-13.17,1.98-22.7-2.56-27.99-15.65-15.34-37.94-16.33-77.3-15.93-116.96.11-11.32-.04-22.66-.59-33.98-.91-18.84,3.82-22.72,23.83-18.71,4.85.97,9.65,2.16,17.43,3.92Z"/>
  <path class="cls-1" d="M691.53,1738.72c29.64-2.81,59.35-5.14,88.89-8.63,16.08-1.9,32.47,11.76,35.87,27.55,2.38,11.08-5.65,19.62-17.88,19.97-30.09.86-60.21,1.29-90.24,3.1-18.53,1.12-36.88,4.56-55.34,6.77-10.85,1.3-19.82-.77-22.61-12.41-1.19-4.95-2.47-9.88-3.82-14.8-2.83-10.32-.78-16.41,12.77-17.55,17.38-1.46,34.55-4.95,51.82-7.57.18,1.19.36,2.38.55,3.57Z"/>
  <path class="cls-1" d="M787.95,576.02c.33,33.87-13.37,42.77-44.6,30.19-9.46-3.81-18.5-9.42-26.3-15.72-16.4-13.25-19.73-26.36-9.07-43.97,7.16-11.83,16.88-23.08,27.89-31.97,14.61-11.79,32.51-3.94,41.62,17.27,4.06,9.47,6.77,19.51,9.25,29.47,1.36,5.45.97,11.28,1.21,14.73Z"/>
  <path class="cls-1" d="M452.11,570.05c.01,9.46-15.26,19.09-31.17,21.22-16.72,2.23-27.21-2.53-36.36-7.94-14.32-8.47-26.56-17.29-14.79-28.7,1.36-1.32,2.59-3.41,4.77-3.7,14.86-1.97,29.81-4.51,45.01-4.99,17.35-.54,20.43,7.57,26.37,12.92,4.38,3.94,4.94,8.79,6.16,11.19Z"/>
  <path class="cls-1" d="M2631.85,2013.57c-2.76,26.42-36.46,48.04-57.95,33.52-11.38-7.69-19.65-26.19-19.59-39.77.06-14.4,7.88-30.55,26.55-37.95,21.55-8.54,27.92-7.95,38.62,11.42,5.64,10.2,8.34,21.81,12.37,32.78Z"/>
  <path class="cls-1" d="M299.61,2002.08c-.35,15.73-17.41,37.58-30.04,41.39-13.87,4.18-22.18-4.99-30.21-12.25-13.56-12.27-15.51-27.87-9.66-44.08,4.88-13.52,8.72-28.04,28.13-30.7,14.72-2.02,29.06,6.06,36.2,23.2,3.34,8.02,4.27,16.9,5.59,22.43Z"/>
  <path class="cls-1" d="M897.13,1090.7c-2.4,19.63-11.45,33.02-29.65,37.65-15.8,4.02-25.88-6.23-32.14-16.85-9.58-16.27-23.79-32.32-8.79-53.36,13.56-19.03,40.11-22.01,53.53-3.11,7.61,10.71,11.49,23.71,17.05,35.67Z"/>
  <ellipse class="cls-1" cx="2743.99" cy="471.11" rx="53.96" ry="170.43" transform="translate(-36.92 337.08) rotate(-6.98)"/>
</svg>