<?xml version="1.0" encoding="UTF-8"?>
<svg id="Layer_1" xmlns="http://www.w3.org/2000/svg" version="1.1" viewBox="0 0 3000 3000">
  <!-- Generator: Adobe Illustrator 30.0.0, SVG Export Plug-In . SVG Version: 2.1.1 Build 123)  -->
  <defs>
    <style>
      .st0 {
        fill: #fff;
      }
    </style>
  </defs>
  <path d="M2877.3,996.2c-3.8-63.3-7-125.1-11.5-186.8-4.6-63.5.3-126.5,5.5-189.8,4-48.6,1.6-97.9-1.3-146.8-3.6-60.1-11.7-119.9-28-178.5-4.4-15.9-8-32.3-15.1-47.2-2.9-6.2-13.8-12.1-21.5-12.7-23.1-1.7-46.4-1.7-69.5-.5-29.8,1.5-59.4,5.6-89.1,7.1-27.7,1.4-39.1,20-47.5,39.2-18.2,41.7-18.1,86.1-11.5,129.4,9.1,59.1,28.5,116,54.7,170.7,31.1,65.1,53.9,132.7,61.8,203.7,2.6,23.3-1.4,47.2-1.1,70.8.4,29.8-.9,60,3.9,89.3,9.3,57.5-1.1,111.5-30.1,161.9-14.1,24.5-39.3,36.8-70.3,39.2-57,4.4-108.9-9.1-156.1-37.7-14.3-8.7-25.9-22.1-36.9-34.7-40.8-46.7-50.8-102.2-47.8-159.8,1.5-27.9,7.9-56.3,17.7-82.6,5.3-14.2-.8-20.7-6.5-30.1-3.1-5.1-5.1-10.7-7.5-16.1,6.1-1.7,12.2-3.4,18.2-5,13.2-3.6,26.5-6.8,39.4-10.9,7.3-2.3,13.8-6.5,21-9.2,13.6-5.2,29.4,1.4,34.8,14,8.5,20,17.5,39.9,25.3,60.2,1.9,4.8,2,13.1-1.2,16-3.5,3.2-12.1,3.7-17.6,2.3-11.1-2.7-21.6-7.5-32.5-11.3-13.1-4.5-23.6-3.9-28.6,10.9-18.5,55-19.6,109,0,164.7,15.4,43.7,47.4,70.5,90.1,84.1,52.7,16.9,110.2,11.5,133.1-56.6,10.7-31.7,9.6-62.9,6.2-95.7-4.7-45.4-3.4-91.4-2.6-137.1,1.1-63.5-16.3-122.7-40.9-181.3-22.1-52.5-39.8-106.7-59.6-160-17.4-46.9-24.1-95.2-19-144.3,2.6-24.8,11.5-49.1,17.1-73.7,2.4-10.4,4.6-20.9,5-31.4.6-13.8,7.4-22,22.7-23.2,39.7-3,79.3-6,119-8.6,26.5-1.8,53-4.3,79.4-4.2,58.2.1,87.2,23.5,99,76.1,8,35.7,20,70.8,25.2,106.8,7.7,54,11.1,108.4,16.2,162.7,1.4,14.8,1.5,29.8,3,44.6,4.5,44.4-7.3,87.7-9,131.6-1.5,38.1-.3,76.3,1.2,114.4,2.8,70.8,7.1,141.5,9.7,212.2.6,14.7-2.8,29.7-5.4,44.3-6.3,35.4-10.6,71.3-20.4,105.9-14.4,50.4-17.6,103.8-43.4,151.3-8.4,15.4-20.3,29.2-30.8,43.6-6.2,8.5-14.6,16-18.7,25.2-21.1,47.3-63.9,61.2-113.4,68.4-37.1,5.4-72.6-2.5-108.8-5.6-22.6-1.9-45.4-1.6-67.9-3.6-39.4-3.5-69.9-22.4-101.2-44.6-33.9-23.9-57.9-54.9-86.3-82.7-54.8-53.6-95.2-115.3-118.4-186.5-11.3-34.8-29.2-68.3-36.2-103.7-8.1-40.6-11-82.9-9.5-124.2,1.4-37.5,12.5-74.6,17.9-112.1,1.9-13.6-.1-27.7-.6-41.5-1.1-30.2-1.8-60.4-4-90.5-.6-8.5-6.5-16.6-9-25.1-5-16.8-9.8-33.7-13.7-50.7-5.4-24-10.5-48-14.7-72.2-5.5-31.3-10.1-62.8-14.8-94.3-2.1-14.2-2.9-28.6-5.1-42.9-3.7-24.4-8.7-48.6-12.1-73-5.6-40.1-12.3-79.6-32-116.6-3.2-6,1.3-18.3,6.6-24.6,3.4-4,15.4-4.3,22.3-2.4,17.9,5,27.5,18.2,31.8,34.8,4.9,18.9,10.7,37.6,14.2,56.7,4.8,26.3,7.4,52.9,11.5,79.2,5.4,34.5,11.5,69,17.1,103.5,3.1,18.7,5.3,37.5,9,56,9.8,49.3,20.8,98.4,30.1,147.8,6,32.3,12,64.8,14,97.4,1.7,27.9-1,56.3-3.9,84.2-2,19.7-8.5,39-11.3,58.7-9.5,66-7.1,130.8,21.2,193.6,13.1,29.2,22,60,33.5,89.9,3.5,9,8.9,17.5,14.1,25.9,16,25.8,30.1,52.9,49.1,76.7,20.3,25.4,44.6,48.2,68.6,70.9,17.7,16.7,35.6,34.4,56.9,46.3,30.1,16.9,63.2,27.9,100,28.8,27.5.7,55,9.1,82.3,8.1,27-.9,54.5-7.3,80.4-15.1,11.1-3.3,19.3-16,27.9-25.2,9.8-10.4,18-22,27.8-32.3,23.8-25.1,37.8-55,46.2-86.6,12-44.8,20.5-90.5,30.6-135.8,5.2-23.5,11.8-46.9,15.4-70.6,3.7-23.9,4.4-48.2,6.4-71h0Z"/>
  <path d="M2701.1,1705.7c15,5.4,18.6,19.4,20.6,32.5,1.4,9.1-5.2,12.7-14.6,12.3-19.8-.7-39.7-.8-59.5-2.1-10.1-.6-18.3-5.2-18.9-16.1-.7-13.9-8.3-23.6-20.4-31.1-5-3.1-9.3-7.3-13.8-11.1-27.9-23.9-60.1-41.4-97.6-46.1-11.4-1.4-27.6,7.9-36.7,16.7-13.4,12.9-27.8,11-42.7,8.6-9.3-1.5-18-4.9-25.9-9.6-24-14.5-44.4-6.9-63.2,9.1-18.9,16.2-26.9,36.7-20,59.9,6.9,23.2,16.1,45.7,24.5,68.4.3.9.8,1.7,1.2,2.5,1.7,2.8,5.2,4.3,8.6,3.5,11.1-2.4,22.1-3.9,31.5-8.2,24.9-11.6,49.6-7.2,75-3.8,23.2,3.1,31.6-.9,34.7-16.8.8-3.8-1.9-7.5-6-8.4-21.9-4.9-33.2-18.2-29.5-36.7,1-4.9,7.6-10.5,13.1-12.5,12.7-4.7,26.7-6.3,39.2-11.1,14.1-5.4,24.5-3.4,33.2,8.1,9.1,12.2,19.6,23.6,27.5,36.4,3.5,5.6,4.6,15.4,1.6,20.5-2.3,3.8-13.1,3.4-20.2,4.6-.2,0-.5,0-.8.1-2.8.2-5.3,1.7-6.6,4.1-7.2,13.4-13.6,25.6-20.4,37.6-8.4,14.9-22.8,21.1-40.5,18-33.7-5.8-67.2-8.6-99.9,5.2-15.2,6.4-13.8,18-13,30,.4,6.1.7,17.1-1.2,17.5-9.2,2.1-19.4,2.9-28.6,1.2-27.9-5.2-27.5-26.9-30.9-47-5.8-34.5-12.3-69-30.2-100.3-8.6-15.1-18-29.9-27.9-44.2-9.8-14.2-42.7-22.8-63.7-17.5-8,2-16.5,3.1-23.8,6.5-6.9,3.3-14,8.1-18.3,14-6,8.2-8.7,16.6-21.4,20.9-7.4,2.5-13.2,18-13.5,27.8-.9,27.7,1,55.3,17.3,80.4,7.9,12.1,17.6,19.7,32.9,19.5,55.2-.4,99.2,48.9,108.9,91.5,6.9,30.1,18.2,59.3,28,89.1.9,2.7,3.4,4.6,6.3,5.1,21.2,3.6,33.9,19.4,31.8,41.6-.4,3.7-2.7,7.7-5.3,10.6-9,10.2-18.3,20.2-27.9,29.9-6.7,6.9-13.8,18.6-21.1,18.7-16.7.4-31.5-7.5-39.4-23.2-3-5.9-6.6-12.6-12.1-16.1-18.8-12.2-22.4-29.5-19.9-48.4.4-3.5,8.2-8.3,12.9-8.7,3.4-.2,6.9,1.2,10.8,2.9,3.9,1.8,8.7.2,10.6-3.5,1.2-2.4,2.2-4.6,2.1-6.8-2.6-39.5-7-78.8-30-113.7-14.6-22.2-36.1-31.5-64.1-31.1-23.1.3-34.7-17.5-46.4-31.7-28.9-35-38.7-75.5-33.1-119.1,1-7.5,5-14.6,7.2-22,3.3-11.2,6.1-22.5,9.2-33.7.9-3.4,1-8.5,3.4-9.8,17.6-9.7,34.9-20.5,53.8-27.1,11.5-4,24.2-5.1,38-6.5,6.2-.7,9.2-7.4,5.3-12-14.7-16.8-28.1-31.6-40.2-47.2-12.6-16.2-23.6-33.5-34.7-50.7-28.8-44.4-54.4-90.4-65.6-141.4-10.2-46.5-17.7-93.6-23.8-140.7-4.2-32.5-5.6-65.5-5.6-98.2,0-67.2-2.4-134.8,3.9-201.6,5.8-61.5,20.1-122.5,33.5-183.2,20.7-94.2,16.6-186.3-20.1-276.4-27.9-68.5-36.1-139.8-37.9-212.2-.1-4.6-.2-9.3-1.1-13.8-2-10.6-1.1-24.1-7.9-30.6-5.1-4.8-20.3-.1-31-.3-54.1-.9-108.3-2.2-162.4-2.9-25.7-.3-28.8,3.9-24.2,26.7,2.9,14.6,4.7,29.5,5.6,44.3,2.9,47.8,4.8,95.6,7.9,143.3,2.9,44.8,6.8,89.5,10.1,134.2,1.3,17.8,1.2,35.6,3.1,53.3,1.4,13.7,4.4,27.2,7.4,40.7,2.8,13.1,7.7,26.3-6.8,36.2-3.1,2.1-9.3,4-11.8,2.6-16.4-9.3-31.7-19-42.3-35.6-22.7-35.6-47.1-70.3-73.2-103.9-13.1-16.8-37.2-21.5-57-19.2-29.9,3.5-52.1-9-74.2-21.8-43.8-25.3-85.3-54-116.3-93-15.9-20.1-28.8-42.3-41.9-64.2-16.3-27.4-30.9-55.6-47.4-82.9-2.8-4.7-11.4-8.9-17.5-9.1-37.5-1.5-69.4-16.9-106.8-19.1-14.5-.8-48.3-10.2-72.2-21.5,6.1,62,11,124.2,17.1,186.2,2.6,26.4-4.3,39.8-23.2,40.6-10.8.5-18.4-2.6-18.3-18.8,0-8.7-2.2-17.4-2.7-26.2-.5-8.8-.1-17.6-.1-26.5.5,0,1-.1,1.5-.1-3.9-57.2-8.2-114.4-11.4-171.7-.7-12.4.5-26.2,4.5-37.5,3.1-8.6,9.1-12.7,14.4-8.8,32.4,12.9,104.9,53.7,137.9,54.1,17.6.2,35.1,1.7,52.7,2.9,5.5.4,11.8,3.5,16.3,2,21.1-7.4,33.4,5.8,46.7,16.1,3.5,2.7,6.3,9.4,5.3,13.4-3.1,11.6,3.5,19.1,9,28.3,15,25.1,29.5,50.6,41.9,76.9,27.1,57.6,73.3,98.2,131.6,127.5,11.6,5.9,27.4,5.1,41.4,6.3,47.1,3.9,85.9,21.5,114.6,57,5,6.2,10.2,12.3,15.7,18.4,4.9,5.5,14.5,1.8,13.9-5.3-9.8-122.7-6.2-246.2-28.9-369.9-.6-3.4,1.4-6.7,4.8-8,12.5-4.9,24.1-13.3,43-12.6,55.9,2.3,112-.8,168-2.1,7.1-.1,14.1-2.4,21.1-3.7,1.1-.2,2.4-1.4,3-1.1,22.8,10.8,53.1,3.8,71.3,24.2,4.9,5.5,4.6,15.4,5.5,23.4,6.6,59.2,11.6,118.6,19.8,177.5,3.1,22.6,12.7,44.4,20.5,66.3,19.1,53.6,33.9,107.8,37.6,164.7,3.1,49.3-2.2,97.2-13,145.3-11.8,52-22,104.4-30.2,157-3.8,24.1-1.1,49-1.4,73.5-.8,51.5-2.1,103-2.2,154.4,0,22.6,1.1,45.1,3.3,67.6,3.3,34.6,7.4,69.1,12.4,103.5,8.5,58.2,33.2,111.8,63.1,162.6,26.7,45.3,58,88.6,99.7,124.2,9.2,7.8,18.6,15.7,12.5,30.6-1.1,2.7,3.9,7.6,8.8,12.5,3.2,3.2,8.7,3.1,11.8-.2,10.7-11.4,20.1-22,30.6-31.6,22.9-20.7,56.3-25.5,85.5-13.5,6.1,2.5,12.6,4.2,18.4,7.1,14.5,7.4,24.2,5.3,35.2-7.7,11-13,27.1-17.3,47.4-14.8,56.1,7,98.6,37.1,142.4,65.9"/>
  <path d="M371.6,1468.6c18.7,7.8,33,6.8,43.6-8.4,13.1-18.9,33.3-28.3,52.3-39,42.7-24.1,88.8-39.3,139.8-37.6,2,0,4.1-.7,11-2-8.5-7.8-14.6-13.8-21-19.2-14.6-12.5-30.9-23.6-43.7-37.5-12-13-11.5-29.6-7.9-46.6,5.8-27,9.1-54.4,14.4-81.5,4.1-21,9.5-41.8,14.3-62.7,1.6-6.9,5-13.8,4.8-20.7-.3-9.6-6.8-15.3-17.8-13.3-34.5,6.4-66,20.6-90.7,42.7-11.2,10-11.3,30.3-17.4,45.6-17.3,43.7-31.3,89.1-67.2,124.1-12.7,12.4-27.7,20.3-47.3,18.7-8.2-.7-16.6.6-25,.5-22-.3-39.9,6.7-52.8,23.8-4.5,5.9-30.7,5.7-37.7-1.2-7.7-7.6-6.1-16.3.1-25.1,20.2-28.6,48.3-44.6,85.1-40.8,35.8,3.6,52.7-17.6,64.5-41.2,17.1-34,37-67.3,40.8-106.3,1.4-14.9,9.6-28.7,23.8-39.2,31.4-23.4,66.7-38.7,105.7-45.9,30.2-5.6,64.5,16.4,76.5,43.4,7.2,16.2,6.4,31.8,3.1,48-5.3,26-11,51.9-15.8,78-4.3,23.2-8.7,46.5-10.7,70-.7,8.4,3.2,19.3,9.2,25.5,8.7,8.8,21.2,14.7,32.4,21.3,16.1,9.5,26.9,22.2,31.6,39.7,1.4,5.1,4.2,11.3,8.5,14.1,38.6,24.7,75.9,50.8,122.4,63.2,41.7,11.1,83.8,10.3,125.6,7.5,35.6-2.4,71.6-8.4,105.9-17.6,45.5-12.2,89.6-28.9,134.1-44.2,6.5-2.2,11.2-8.8,17.6-11.1,22.6-8.1,29.7-4.8,48.8,20.2-4.3,18-17.6,24.8-35.6,30-34.1,9.8-66.8,24.2-100.9,33.9-34,9.6-69.1,16.3-103.9,23.2-22.5,4.4-45.3,8.3-68.2,10-35.4,2.7-71,2.6-106.1-4-47.2-9-88.2-29.9-129.6-52.6-42.9-23.5-90.8-35.2-142.9-19.6-43.7,13.1-79.8,35-109.7,66.4-14.6,15.4-21.6,33-20.2,55,2.9,45.2,1.9,90.6,3.5,135.9,1.9,52,5.1,103.9,7.2,155.9.8,20.6-.1,41.3.4,62,.6,22.5,2,45,6.9,69.1,8.8-12,18.2-23.6,26.3-35.9,10.4-15.9,17.5-18.7,35.1-8.9,16.6,9.2,32.6,19.5,48.2,30.1,9.2,6.3,16.5,9,25.8,0,17.4-17.1,35.7-33.4,53.4-50.3,8.4-8,22.8-8.8,32.8-.2,6.4,5.6,11.5,12.5,16.8,19.1,13.9,17.1,27.7,34.2,44.2,54.7,13-15.7,26.6-28.7,35.7-43.9,13.1-22.1,31.9-26.5,52.4-9.8,17.4,14.1,35.8,27.3,53.1,41.5,8.4,6.9,13.5,5.2,18-3.2,4.4-8.3,8.7-16.6,13-25,15.2-29.3,14.8-28.5,49.8-11.4,35.5,17.4,55.3,47.5,70.7,80.2,26-4.4,32.8,0,34.5,24.8,1.4,19.9,1.4,39.9.6,59.8-.7,17.1-7.8,20.9-24.8,14.3-19.8-7.7-39.9-15.3-58.8-24.8-5.6-2.8-10.3-11.6-10.6-18-.9-15.8,1.9-31.7,1.3-47.5-.3-9.4-3.6-19-6.8-28.1-1.2-3.5-6.4-5.7-8.8-9-5.6-7.6-10.1-6.8-14.6.8-9.2,15.8-17.9,31.9-28.2,47.1-3.5,5.2-10.8,10.7-16.7,11.2-6.1.5-14.1-3.8-18.9-8.3-20.6-19.2-40.1-39.3-60.4-58.7-8.7-8.3-14.2-.6-18.6,4.9-13.1,16.3-25.5,33-38.2,49.6-11.1,14.5-23.9,15.6-35.8,2.4-13.4-14.9-26.8-29.9-39.3-45.4-6.5-8-11.2-17.4-19.1-30.1-24,20.8-45.3,38.5-65.5,57.1-10.8,9.9-18.1,11-29.4,1.8-17.7-14.6-35.7-28.8-56.2-45.2-13.1,17.5-24.5,32.8-36.1,48.1-4,5.3-7.5,13.2-13,14.7-13.6,3.9-13.8,11.9-13.3,22.4,1.8,37.6,2.7,75.3,4.2,113,2.6,63.4,5.6,126.7,8,190.1.7,19.5.4,39.1,0,58.7-.4,15.9,5.5,27.5,21.3,35.2,5.5,2.7,10.8,9,12.6,14.6,5.5,17.2,17.8,28.4,35.7,30.6,18.6,2.3,36.3-5.3,44.7-21.4,12.7-24.3,22.9-49.7,33.2-74.9,16.7-41.1,43.3-57.5,90.2-57.3,19.4.1,38.8-1.9,49.5,16.6,3.6,6.2,5.5,17,2.1,22.1-3.7,5.5-14.5,7.4-22.5,9.7-3.1.9-7.3-1.2-11-2.3-42.1-11.8-60.1,15.2-72.8,44-3.9,8.9-5.1,18.9-7.3,28.5-8.6,36.8-31.1,63.1-69.5,75.6-21.7,7.1-43.8,4-63.7-7-10-5.5-19-12.4-28.8-18.3-3-1.8-7-2.3-10.3-3.8-9.3-4.3-18.5-8.8-27.7-13.3-.4-.2-.4-1.1-.9-1.3-30.3-15.3-21.7-42.4-22.5-66-2.9-96.4-4.2-192.8-7.7-289.2-4-112.3-10.1-224.5-14.5-336.8-2.4-60.2-3.1-120.5-4.9-180.7-1-33.4-2.5-66.8-4.1-100.1-.2-3.4-1.8-7.1-3.6-10.2-10.8-17.6-9.2-33.1,9.8-47h0Z"/>
  <path d="M2373.7,2713.3c26.3-71.4,56.2-140.5,53.8-216.8-1.7-53.1.2-106.2-.9-159.3-.6-28.1-5.7-56.1-6.1-84.2-.4-26.4,2.8-52.8,4.6-79.2.2-2.6,2.1-5.2,2.2-7.9.1-15.3,2.4-27.9,22.8-32.8,15.4-3.7,28.3-4.9,43.9.7,25.8,9.1,37.3,25.1,41.8,49.2,7.1,37.6,17.4,74.7,24.8,112.3,3.8,19.1,6.6,38.8,5.4,58-2,33.5,9,64.2,20.6,94.5,6.9,18,18.6,35.4,31.9,50.1,28.7,31.6,35.9,109.9,3.6,145-4,4.3-7.9,10.4-8,15.8-.5,26.5.1,53,.6,79.5,0,4.2,2.2,8.4,2.4,12.6,1.4,23.9,10.9,30.8,37.4,28.8,23.4-1.8,46.9-1.3,70.2-3.4,7.4-.7,16.5-5.2,20.9-10.6,64.9-79.9,77.2-171.4,74.2-268.2-2-63.2-22.3-121.1-43-179.5-13.1-36.9-29.9-72.7-42.8-109.7-7.3-21-10-42.5-3.1-65.4,11.8-39.1,30-74.2,55.7-107.2,22.4-28.8,41.4-60.2,58.5-92,21.8-40.6,21.4-85,17.3-129-3-32.3-16.9-61-36.2-88.4-22.7-32.4-40.1-68.3-24.9-107.5,9.5-24.5,25-47.6,41-69.3,9.8-13.3,25.3-23.3,38.9-34,7.4-5.8,14.2-4.5,21.1,2.9,21.6,23.2,20.6,21.7-4,43-28.1,24.2-55,51.4-54.8,89.4,0,17.9,6.5,38.5,17.5,53.1,51.1,68.4,60.5,143.4,45,222.1-4.2,21.2-15.7,41.9-27.2,61.2-24,40.1-50.5,79.1-75.6,118.6-27.6,43.3-33.8,87.6-10.4,134.8,11.9,23.9,19.4,49.6,29.1,74.4,5.7,14.6,10.9,29.4,17.7,43.5,19.6,41.1,25.9,84.9,31.1,128.9,7,59.4,3,118.5-10.1,176.9-11.3,50.2-38.1,94-70.9,134.9-5.2,6.5-12.1,12.9-13.1,21.1-.4,3.2-1,3.8-5.4,4.6-12.9,2.3-26.1,1.9-39-1-18.4-4-37.1-2.7-56.3-.7-20.8,1-42.2,1.6-62.5,1.3-38.1-4.4-53.1-20.9-53.6-58.2-.6-40.4.6-80.9,2.5-121.3.4-9.2,5.5-19,11-26.9,23.2-33.1,18.7-67,3.3-100.5-6.9-14.9-20-27.3-28.1-41.9-25.5-45.7-30.3-95.6-35.6-145.9-4.7-44.9-15.7-89.2-24.3-133.7-.9-4.4-4.5-8.4-7.3-13.4-16.3,20.1-15.1,41.9-13.9,63.2,1.7,30.2,5.3,60.4,6.7,90.6,2.4,52.4,5.6,104.9,5.1,157.3-.5,53.1-7.1,105.5-26.4,156.5-14.4,38-31.5,76.1-28.5,118.1.4,5.4-2.4,14.1-6.5,15.9-16.5,7.4-33.9,16.2-51.4,16.9-7.3.3-22-18.5-22-28.6,0-47-23-87.9-37.6-130.8-12.9-38-29.1-75.1-43.8-112.6-28.6-72.6-57.2-145.2-85.8-217.8-28.4-72.1-56.7-144.3-85-216.5-16.3-41.6-32.9-83-48.5-124.8-13.2-35.4-24.2-71.6-37.8-106.9-9.9-25.7-22.9-50.4-33.8-75.9-9.2-21.6-16.8-43.7-25.8-65.4-22.4-54.1-41.7-109.7-68.9-161.7-21-40.2-53.8-74.4-100.1-94.4-28.3-12.2-47.9-31.2-59.5-58.9-14.5-34.5-32.6-67.7-48.6-101.7-3.7-7.8-4.6-16.7-7.3-25-6.5-20.1-14.1-40-19.6-60.3-3-11.2-7-24.3,6.2-32.7,4.3-2.7,15-3.3,17.5-.6,9.1,9.4,20.4,19.8,22.7,31.2,9.7,48,24.9,94.1,47.1,138.3,17.1,34,35.7,65.9,78.8,79.2,29.3,9.1,44.4,34.7,62.2,55.8,29.5,35,54.5,71.9,63.8,117.2,4.8,23.3,19.9,44.8,29.7,67.4,14.2,33,28.7,66,41.4,99.6,11.9,31.5,21.2,63.8,32.4,95.6,6.2,17.4,14.5,34.2,20.9,51.6,16.4,44.3,32,88.8,48.6,133,15.9,42.2,33.4,83.9,49,126.2,8.4,22.7,13,46.6,21.6,69.2,6.7,17.7,17.9,33.9,25.3,51.5,8,19.1,13.3,39.1,20.8,58.4,7.5,19.2,16.8,37.8,24.3,56.9,37.9,95.8,75.5,191.8,113.4,287.6,1.1,2.8,3.3,5.1,5.4,8.3h0Z"/>
  <path d="M105.4,1338c0-3.8.6-7.6,1.9-11.1,18.5-49.8,31.3-94,79.2-124.9,5-3.2,10.5-6.5,16.2-7.7,53.5-11.3,76.7-47.7,90.8-92.5,5.1-16.2,11.5-32.1,18.9-47.5,9.8-20.5,24-38,44.1-51.3,14.9-9.9,28.5-21.2,43-31.6,36.5-26.1,80-36.9,123.7-45.5,21.8-4.3,44.5-4.7,67-5.9,8.2-.4,21,1.9,28.5,5.3,30.6,13.9,59.2,30.4,80.2,56.4,4.2,5.3,8.5,11.5,9.7,17.7,7.6,39.8,17.7,79.6,20.5,119.8,4.1,58.4,25.8,110,58.2,158.6,4.5,6.7,11.9,12.8,19.4,16.7,30,15.2,60.6,29.3,91,44,10.3,5,21.5,9.2,30.1,16.2,5.3,4.3,8.7,12.9,8.7,19.7,0,4-7.5,10.9-12.5,11.6-9.2,1.3-20.5,1.6-28.4-2.1-30.5-14.3-59.5-31.6-90.2-45.4-31.7-14.3-52.9-37.3-66.9-65.7-20.3-41.2-43.5-81.8-50.2-127.5-3.8-25.9-4.9-52.2-8.5-78.2-2.7-19.8-5.8-39.8-11.7-58.9-9.2-30-60.3-53.3-93.6-51.2-40.3,2.4-76,17.1-113.2,27.9-11.8,3.4-22.4,11.1-32.6,18-13,8.7-24.4,19.4-37.6,27.8-27.6,17.6-36.5,45.7-48.2,72.2-7.3,16.6-13,33.7-20.1,50.3-11.9,27.7-32.5,48.8-60,63.8-7.4,4-16.6,4.9-24.8,7.7-41.2,13.6-66.1,43.1-86.6,77-.5.9-1.7,2.1-1.4,2.7,9.4,24.3-6.9,46.6-6,70.3,1.3,38.5,1.3,77,2.2,115.5,1.6,70.6,3.8,141.3,5.2,211.9,1.2,58.1,1.8,116.3,2.6,174.4.9,64.9,1.8,129.8,2.6,194.7,1.1,85.2,2.1,170.3,3.3,255.5,1,69.1,1.9,138.2,3.7,207.3,1.1,41.6,3.7,83.1,5.5,124.7,1.3,30.2,2.6,60.4,3.6,90.6.6,19.1,1.6,18.1,21.7,15.3,25.9-3.6,53.6-3.6,76.1,9.9,27.4,16.4,55.3,13.3,81.5,4.4,52.4-17.7,102.8-13.2,154.4,1.6,55.8,16,48.3,5.8,58.3-28,8.2-27.9,20-55.6,34.6-81.2,30-52.8,83.2-68.5,142.4-54.7,8.7,2,17.7,9.2,22.8,16.3,3.1,4.3,1.1,14.6-2.7,19.4-3,3.9-12.7,5.9-18.5,4.9-57.8-10.6-95,8.5-119.2,58.5-11.6,24.1-20,48-24.1,74.2-5,31.9-23.4,42.1-57.8,35.4-15.6-3-30.8-8-46.1-12.1-47.6-12.7-93.8-5.4-140.3,7-30.3,8.1-60.1,6.4-88.9-10.1-32.3-18.5-62.3-12.2-91.2,10.9-1.3,1.1-2.8,1.9-4.3,2.7-16,7.9-35.4-.3-41.7-16.9-1.8-4.8-3.6-9.4-5.1-13.2-1.3-3.4-2-7.1-2.1-10.8l-16.9-1444.4h0Z"/>
  <path d="M879.6,402.2c55.6,16.1,109.3,29.6,160.1,52.7,14.8,6.8,33.6,5.3,48.5,11.9,12.8,5.7,24,16.6,33.3,27.3,2.5,2.9-3.1,18.8-7.6,20.1-20.5,6.1-30.5,22.8-42.4,36.9-16.9,20-32.6,41.2-46.7,63.2-3.7,5.8-2.5,18.7,1.9,24.7,19.7,26.9,40.7,52.8,62.3,78.3,40.2,47.5,77.9,96.7,110.9,149.4,6,9.6,4.5,15.8-3.3,22.4-18.4,15.4-37,30.6-54.9,46.6-8.9,7.9-15.5,18.2-24.5,26-49.9,42.9-82.1,94.8-68.5,161.3,6.6,32.3,26.6,61.9,40.7,92.7,1.3,2.9,4.5,5.1,5.5,8.1,3.4,10.1,12.8,20.4-2.4,29.7-20.9,12.9-27.6,13.7-39.1-2.3-39.2-54.1-63.7-113.4-58.8-180.9,3.2-44.3,19.7-83,55.6-113.6,30.4-25.9,57.8-55.2,85.7-83.8,3.2-3.3,3.5-13.5.8-17.7-18.6-28.2-37.1-56.5-57.9-83-33.4-42.5-68.7-83.5-103-125.4-13.6-16.6-13.5-40-1.2-56,23.1-30.2,45.8-60.7,69.8-92.6-21-8.7-42.2-18.6-64.2-26.1-24.8-8.4-50.1-15.5-75.6-21.5-18.1-4.2-36.8-6.8-55.4-8.1-21.3-1.5-41.5-22.3-39.3-43.2.2-2,.9-4.2,2.2-5.7,19.4-22.8,39.6-45,58.1-68.5,4.7-6,7.6-16.7,5.7-23.9-5.5-20.9-13.4-41.2-21-61.5-7.6-20.2-27-15.6-41.4-15.2-77.7,1.9-155.3,5.4-232.9,8.9-77,3.5-154,7.8-231,11.4-20.1,1-40.4,0-60.4,2-6.8.7-15.3,6.2-18.9,12-12.1,19.4-22.1,40.1-33.3,60-24.1,42.7-48.4,85.2-72.9,127.7-5.6,9.7-7.5,18.1-5.2,30.3,5.4,28.7,6.1,58.2,9.2,87.4,3.7,35.1,7,70.2,12.2,105,5.4,35.9,12.9,71.4,19.7,107.1.6,3.1,2,6.2,3.3,9.1,13.6,29,10.2,36.9-21.9,49.5-27.2,10.6-45,37.8-44.8,66.6.3,62,.1,124.1.2,186.2,0,4.9-.9,10.4,1.1,14.5,6.8,14,3.4,22.1-9.6,31.9-10.9,8.2-19.3,8.6-30.1,4.6-12.9-4.8-22.8-22.3-21.7-35.3,2.6-31.2,5.5-62.4,6.5-93.7,1.1-37,.9-74,0-111-.3-13.2-4.3-26.3-6.3-39.5-1.5-9.6,2.6-14.8,11.6-20.4,16.7-10.3,32.4-22.8,46.4-36.5,5.7-5.7,8.7-17.1,7.9-25.5-3.3-35.6-9.1-70.9-12.9-106.4-5.4-51.3-9.3-102.8-15-154.1-1.3-11.8-8.2-22.9-10.9-34.7-2-8.5-5-19.5-1.3-25.9,28.1-49.1,58-97.2,86.9-145.8,12-20.1,23.8-40.5,34.2-61.4,2.5-5-.2-13.1-2.1-19.4-5.9-19.2.4-24.2,20.8-23.3,28.1,1.2,56.4-1.1,84.6-2.3,47.6-2,95.3-4.2,142.9-6.3,72.6-3.3,145.2-6.7,217.8-9.8,31.8-1.4,63.6-1.9,95.4-3.5,13.7-.7,27.2-4.6,40.8-4.8,9.7-.1,19.7,3,29.2,5.8,46.1,14,53.1,57,70.3,92.3,3.1,6.3,4.4,13.4,7.6,19.7,7.2,14,4.1,26.2-5.1,37.8-13.5,17.1-27.3,34-40.2,51.6-3.5,4.7-4,11.5-5.5,16h0Z"/>
  <path d="M1168.4,2134.1c50.6-.7,101,3.6,151.9-4.9,40.6-6.8,82.8-5.7,124.3-7.6,17.5-.8,35.3-1.9,52.4.9,7.1,1.1,12.4,11.9,18.5,18.2-5.4,4.1-10.4,11-16.3,11.8-18,2.4-36.3,1.9-54.5,3.5-40,3.6-79.8,8.9-119.9,11.2-34.1,1.9-68.5,1-102.7.6-19.7-.2-39.5-1.9-64.1-3.1,6.5,7.5,9.4,12.9,14.2,16,40,26.4,53.7,66.5,65.9,107.6,18.4,62.3,9.2,121.3-26.2,176.4-30.8,48-69.8,89.5-118.5,123.1-16.1,11.1-29.5,25.7-44.1,38.7,1,1.7,2,3.3,3,5,21.1-7.5,42.7-14.2,63.3-22.7,41.1-16.9,80.7-15.7,117.8,8,25.6,16.3,49.6,16.1,77.6,4.3,52.4-22.1,107.9-33.9,166.1-30.8,28.5,1.5,47.8,19.5,68.1,35.2,8.9,6.9,17,15.9,27.3,19.6,10.4,3.8,23.9,5,34.5,2.3,26.5-6.8,52.4-16.1,78.2-25.2,44.3-15.6,86-5,127.8,9.2,22.1,7.5,44.7,13.7,67.3,20,13.5,3.8,27.7,5.7,41,10,23.7,7.8,43.4-.5,59.4-14.3,25-21.5,50.8-43.3,70.5-68.8,29.4-38.2,21-81,6.3-122.7-2.7-7.8-7.9-15.1-9-23-.8-5.1,2.7-14.7,6.1-15.5,5.5-1.3,15.1,1.2,18.4,5.3,35.6,44,47.4,94.3,33.2,147-5.6,20.6-24.7,38.2-38.3,56.8-23.6,32.3-57.7,53.8-92.4,74.1-7,4.1-18.6,4.4-27.2,2.8-35.6-6.9-70.9-14.8-106.1-23.1-8.1-1.9-15.2-7.3-23.2-9.8-23.3-7.3-46.6-14.9-70.4-20.7-28.4-7-52.5,9.3-78.1,15.9-17.8,4.6-34,14.3-51.3,20.8-32,11.9-57.9-.1-82.1-18.9-13.9-10.8-27.4-22.4-42.8-31.1-25.5-14.3-53.1-5.5-79.6-2.1-31.9,4.1-61.2,15.2-89.6,29.7-16.2,8.3-34.4,13.6-52.4,18.1-17.6,4.4-29.3-9.5-39.6-18.4-32.9-28.2-72.3-31.8-108.7-11.7-20.6,11.3-45,16.6-67.6,25-5,1.9-9,6.5-14.1,7.7-9.6,2.3-20.4,5.8-29.3,3.6-12.3-2.9-24.7-11.1-22.7-25,1-7,9.3-13.5,15.3-19.3,2.5-2.4-18.2,32.2-13.3,30.8-21.5-12.2,3.9-56.1,21.5-71,32.3-27.4,65.8-53.8,95.7-83.2,42.4-41.8,77.4-88.5,90.5-146.5,12.2-53.8-2.1-103.3-30.4-149.5-7.8-12.8-23.6-21.3-35.5-32-10.3-9.3-21-18.4-30.4-28.4-10-10.6-6.2-21,5.3-30.6,10.3-8.6,16.7-21,26.2-30.6,37.5-37.9,37.9-84.5,32.7-130.8-6.4-56.6-29.2-108.8-58.6-158.6-11.1-18.8-21.7-38.8-27.1-59.4-10.6-40.8-2.3-77.8,25.8-113.3,41.8-52.8,100.8-77.2,164.2-95.1,44.4-12.6,89.4-22.3,136.8-22.9,45.5-.6,90.8-2.7,134.5,10.3,30,8.9,56.5,24.6,72.4,51.1,3.7,6.1.3,15.8.2,23.8-8.7-.5-18.8,1.4-25.7-2.1-8.4-4.2-13.4-13.7-21.1-19.5-9.7-7.3-19.7-16.6-31.1-19-25-5.5-51-7.2-76.6-10.4-38.8-4.9-76.8,1.8-114.4,8.5-47.8,8.5-92.2,25.8-136.1,46-32.8,15.1-55.2,37.2-73.6,64.1-26.7,38.9-21.9,78.8,2.2,116.8,32.6,51.3,53.4,106.7,68.4,164.2,10.8,41.6,4,83.2-6,123.9-2.8,11.2-13.4,21-21,31-4.8,6.4-10.7,12.1-16.1,18.1,1,1.6,2.1,3.2,3.1,4.7h0Z"/>
  <path d="M1719.6,1922.1c3.6-8.9,9.3-17.7,10.4-26.8,3.8-30.9-1.6-60.5-20.2-87.2-2.4-3.4-3.8-7.4-5.3-11.3-12-31.8-25.9-41-60.1-39.7-10.7.4-29.8,15.5-30.3,27.5-1.5,34.3-3.4,68.9-.9,103.1,2.9,39.4,10.9,78.5,16,117.8,4.1,31.6,7.2,63.3,10.9,95,7.9,67,14.3,134.2,24.3,201,7,47.2,27.4,91.5,53.6,131.8,15.5,23.9,41.9,41.6,63.7,61.9,2.6,2.4,6.8,3.6,10.5,4.6,45.2,12.6,110.7-15,133.9-53.6,15.5-25.8,20.2-52.9,21.2-81.5.7-19.1,2.9-38.1,2.9-57.2,0-24.1-2.2-48.2-2.2-72.3,0-29.3,2.2-58.6,2.2-87.8,0-24.7-2-49.4-3-74.1-1-24.6-2.3-49.2-2.5-73.8-.3-29.4-8.1-56.9-21.1-83.5-9.9-20.1-26.9-30.4-50.4-32.4-12.8-1.1-21.2,3.9-26.1,14.5-10.3,22.2-11.3,45-1.7,67.3,12.7,29.4,27.3,58.1,39.9,87.6,14.6,34.2,20.4,70.2,23.3,106.9,2.7,33.2,10.5,66.2,12.4,99.4,2,34.4,2.3,69.8-24.7,98.1-12,12.5-25.2,24.4-39.5,34.5-5.5,3.9-16.1,3.9-23.6,2.5-57.6-10.7-103.4-39.6-128.9-88.1-25.4-48.4-19.3-90,28.3-121.5,24.1-15.9,49.8-16.3,75.3.4,24.6,16.1,40.9,36.7,34.8,64.8-2.4,11.1-14.9,23.7-26.4,29-15.8,7.3-29-3.7-39.7-17.3,2.7-4.7,5.2-10.5,9-15.4,10.5-13.2,10.1-28.5-1.5-34.8-8-4.4-26.9,5.1-33.9,15.9-19.6,30-11.4,57.3,7.8,84.1,10.7,14.9,24.9,25,40.7,35.3,28.3,18.5,50.5,4.9,61.6-18.4,9.3-19.5,14.4-42.5,14.1-63.8-.4-34.3-5.1-68.8-11.2-102.7-7.1-38.9-17.6-77.3-27-115.8-1.4-5.9-4.3-11.8-7.9-16.9-29.8-41.2-42.5-86.7-30.3-134.8,9.9-39,35.6-66,93.9-45.2,49.2,17.5,81.1,52.8,91,100.7,6.7,32.6,5.3,66.6,7.8,99.9,2,27.1,5.2,54.3,5.9,81.4.6,23.6-1.8,47.2-2.3,70.9-1.4,66.9-1.3,133.9-4.2,200.8-1.4,32.7-18.7,61-41.5,85.6-9.6,10.4-20.7,20.1-32.8,27.8-37.5,23.8-81.3,27.6-123,19.6-33.3-6.4-62.9-26.5-85.2-52.7-5.5-6.4-12.2-11.9-17.5-18.4-8-9.8-16.7-19.4-22.6-30.2-26.1-48-42.6-99.3-52.4-152-6.3-33.4-7.4-67.6-11-101.4-4.9-46.5-9.7-93-14.9-139.4-6.9-61.4-15.3-122.7-20.8-184.2-2.3-26.4-.7-53.5,2.3-80,3.7-32.2,37.7-61.7,68.4-58,45.7,5.6,86,18.4,105.6,71.2,8.9,24.1,23.5,47,28,71.6,4,21.9,1.7,46.6-5.1,68.1-8.7,27.4-46.9,36.5-70.7,18.6-13.8-10.4-25.1-24.3-35.1-38.2-3.2-4.4-1.3-15.5,2.8-20.1,3.1-3.5,14.7-4.2,19.9-1.6,7.7,3.8,13.4,11.3,19.2,17.9,3.7,4.2,5.9,9.4,8.7,14.2,2.4.3,4.9.6,7.3.9h0Z"/>
  <path d="M898.7,2820.6c-17.6-1.5-35.2-3.8-52.8-4.4-11.7-.4-23.7.4-35.1,2.6-16.4,3.1-30.3-2.3-35.9-19.4-5.6-16.9-8.9-34.6-11-52.2-2-16.5,4.5-28.6,22.6-37,24.6-11.4,46.5-27.7,70.8-39.6,17.3-8.5,22.5-23.7,24.4-37.8,1.1-7.8-10.3-21.4-19.6-25.4-23.9-10.3-47.7-24.1-76.7-18.1-12.9,2.6-22.6-2.4-26.5-15.1-3.7-12.3,2.4-33.6,11.4-38.4,1.3-.7,3.2-1.4,4.6-1.1,29.4,6.8,61.2,9.3,87.4,21.9,23,11.1,47.8,25.9,56.7,53.2,13.4,41.1-6.2,72.7-35.2,99.6-13.6,12.6-33.8,18.9-50.6,28.6-5.1,3-12,8.1-12.1,12.4-.1,3.9,7.1,9,12.2,11.9,5,2.8,11.4,4.2,17.4,4.9,51,6.3,101.6,3.1,150.7-10.6,22.5-6.2,44.5-16.7,64.1-28.8,31.2-19.3,65.9-23,101.2-24.1,8.8-.3,18.9,7.6,26.5,13.8,21.5,17.3,43.6,33.2,74.3,26.4,24.1-5.4,47.7-12.5,71.4-19.4,30.8-8.9,61.4-19,94.4-10.1.5.1,1.2.3,1.6.2,33.2-10.1,48.3,14.6,66.7,31.2,16.6,14.9,36.5,19.9,60.9,8.9,32.3-14.5,64.2-30.2,95.5-46.6,29.7-15.6,90.2-26.4,127,2.7,9.1,7.2,16.6,16.4,26.4,22.3,20.7,12.2,44.3,5.3,66.4,4.7,65.9-1.7,131.7-5.2,197.5-8.4,30.9-1.5,61.8-3.6,92.6-5.7,15.8-1.1,23.8,7.8,19.6,22.1-7.2,24.2-7.2,23.3-34.4,23.9-19.2.4-38.3,4-57.6,5.1-20.2,1.2-40.5.7-60.8,1.8-33.2,1.7-66.3,4.3-99.5,6.1-31.9,1.7-63.8,2.8-95.6,4.6-4.5.2-11.5,2-12.7,4.8-6.2,13.9-17.9,9.7-28.3,8.3-10.9-1.5-15-8.1-18.3-18.6-13.5-42.5-38.9-51.4-89.6-36.6-25.2,7.3-46.8,25-70.8,36.7-22.4,10.9-45.4,21.1-68.9,29.9-18.8,7-35.9,1-52.7-9.3-12.9-7.9-23-16.5-30.2-29.2-2.5-4.3-9-8-14.4-9.2-23.8-5.2-47.8-7.8-71.8,0-31,10-61.9,20.7-93.4,29-38.7,10.2-72.7,1.7-100.2-26.7-9.3-9.6-20.6-14-35.3-12.6-27.9,2.7-53.6,10.3-78.2,23.1-54.5,28.3-112.7,44.4-175.9,43.9h0Z"/>
  <path d="M1936.6,1372.2c-24.3-24.8-45.7-49.2-70.1-70.8-23.5-20.9-49.9-38.9-75.1-58.2-12.8-9.8-25.8-19.4-38.3-29.6-14.6-11.9-15.8-24.8-4.9-39.6,25.6-34.8,50.5-70.1,76.9-104.4,16.3-21.2,34.9-41,54.5-63.8-10.1,0-17.4,0-24.8,0-19.3.1-39,2.6-57.7-.4-11.3-1.8-22.8-10.7-30.7-19.2-6-6.5-6.9-16.2,3.2-25.2,25.2-22.2,48.7-46,72.3-72-5,1.1-10.3,1.7-15.1,3.5-19.3,7.2-42.6-5.4-47.5-24.6-2.7-10.3,2.1-13.7,10.8-14.3,43.7-3.3,85.7-13.4,127.7-24.6,9-2.4,26.1,10.9,34.9,20.5,8.6,9.4-1.2,18.6-10.1,25.8-33.7,27.4-67,55.2-104.7,86.3,27.7,1.3,50.4,3.5,73.1,3.1,18.7-.3,29.8,9.4,39.3,21.3,7,8.8,5.3,17.4-3.5,26.1-54.8,53.4-104,110.8-143.6,175.1-6.6,10.7-7,17.2,4.6,25.7,30.7,22.6,60.8,46.1,89.8,70.7,20.3,17.2,37.4,37.8,57.8,54.9,11,9.2,20.7,17.7,21.8,31.9.5,6.1,1.7,13-.7,18.3-14.7,32.2-.4,60.6,18.5,84.3,8.6,10.8,25.2,17.3,26.7,33.3,1.6,17.7,2.3,35.5,1.8,53.2-.2,9.6-6.3,14.8-18.1,11.6-23.6-6.3-56.8-42.9-58.5-65.5-.3-3.5-.9-7.9.9-10.5,16.9-24.7-1-43.4-12.3-63.1-4.2-7.2-10.9-13.4-14-20.9-4.4-10.5-8.7-21.9,7.6-28.7,3.8-1.6,5.4-7.3,7.6-10.5h0Z"/>
  <path d="M1686.5,1019.9c-26.9.5-42.1-12-45.9-35.5-1.3-7.9-4.5-16.1-8.9-23-18.8-29.9-28.7-62.6-38-95.9-17.5-62.7-81.3-81.8-139.3-62.7-73.6,24.2-114.1,119.9-76.8,187.9,28.2,51.5,43,106.7,49.3,163.4,4.8,43.7,4.1,88,3.4,132.1-.3,18.8-6.4,37.7-10.9,56.3-1.2,5.2-5.1,10.9-9.6,14-20.8,14.4-41.3,29.4-63.6,41.6-20.9,11.3-45.8-3.1-48.6-25.3-2-15.7,10.5-21.8,21.6-25.3,38.8-12.2,58.7-33,60.4-72.7,1.9-43.3,1.8-86.8.9-130.1-.3-12.5-7.1-24.7-9.8-37.2-8.8-41.9-20.7-82.7-41.7-121-34-62-9.4-158.8,52.2-197.1,20.8-12.9,40.9-29.2,64.1-35.7,21.4-6,47-4,69.6,0,31.6,5.6,59.4,20.4,82.7,42.4,21.4,20.1,32.3,44.9,42.1,70.6,11.9,31.3,24.3,62.5,34.3,94.4,5.9,19.1,23.2,36.8,12.5,59h0Z"/>
  <path d="M893.4,720.7c.8-12.5-2.2-24.5,2.8-29.1,10.1-9.5,17.8,3.4,26.6,7.5,17.1,8,34.2,16.4,52.2,22.5,15.7,5.2,26.3,14.2,33.3,27.6,6.6,12.5-1.9,26-16.5,28.6-13.2,2.3-25.8,7.8-39.1,9.7-7.4,1-17.5-.2-22.9-4.3-9.6-7.3-15.2-14.7-31.5-13.7-70.1,4.1-140.3,5.1-210.5,7.2-47.1,1.4-94.2,2.7-141.3,4.1-64.8,1.8-129.7,3.7-195.2,5.6-3.1,8.8-6.4,16.3-8.5,24.2-3,11-13.5,15.3-21.4,12.2-25.6-10.1-54-17.5-67.5-44-8.2-16.2-5.4-21.9,10.3-32,10.7-6.9,20.5-15.7,28.8-25,14-15.7,22.5-16.6,37.1-1.5.7.8,1.8,1.5,2.1,2.3,8.8,22,27.4,20.5,48,19.5,67.6-3.4,135.2-5.3,202.8-7.6,67.6-2.3,135.2-4,202.8-6.7,36.9-1.5,73.7-4.6,107.5-6.8h0Z"/>
  <path d="M1911.7,644.7c-13.8-7.5-28.5-13.1-39.6-22.4-6.6-5.5-9.7-16.7-10.8-25.6-4.1-34.1-6.7-68.3-9.8-102.4-1.3-14.9-2.1-29.8-3.9-44.6-4.6-38.8-9.3-77.5-14.6-116.2-1.7-12.6-5.8-24.9-7.8-37.4-.6-3.8,2.6-11.5,3.8-11.5,10,.3,21.6-.5,29.4,3.9,11.2,6.4,12,19.2,13.7,31.3,4,27.9,11.4,55.4,15.2,83.3,4.6,33.1,7.1,66.5,10.1,99.8,2.7,29.7,5.3,59.4,7,89.2.6,10.4,3.7,15.2,15.7,14.1,18.2-1.6,36.4-2,54.6-3.4,14.1-1.1,22.6,4.4,24.6,17.1,3.3,21.4-.6,24.3-16.2,30-12.3,4.5-23.9,13-33.1,22.1-19.3,19-36.9,39.4-55,59.4-10.7,11.8-25.8,12.7-38.8,1.7-13.5-11.5-13.8-24.5-1.3-35.8,19.9-18.2,39.6-36.6,56.5-52.4h0Z"/>
  <path d="M2481.6,1309.4c-28.8-5.2-57-6.4-76.5-28.7-6.1-7-17-10.3-23.5-17.2-11-11.6-21.5-24.1-29.7-37.5-2.8-4.7-.6-15.2,3.5-19.6,6.9-7.3,13.8-2.2,20.6,4.1,23.4,21.8,46.2,45.4,82.3,48.2,15.3,1.2,31.2,1.4,46.3-.9,25.6-3.9,50.6-11,76.2-15.3,39.9-6.7,70.1-30,97-54.2,19.8-17.8,30.1-44.7,44.5-67.6,3.9-6.2,6-13.5,10.9-18.8,9-9.7,18.7-8.9,27.8.8,19.1,20.5,19.3,20.7,3.9,44.7-15.2,23.8-29,48.7-47.1,70.6-28.3,34.4-67.6,56.4-112.2,67.4-41.4,10.2-83.8,16.4-124,24h0Z"/>
  <path d="M1624.6,705.1c.2,15.3-7.2,21.5-17.6,17-12-5.2-22.6-14-32.4-22.6-6.2-5.5-10.9-13-14.4-20.4-10.6-22-29.7-19.6-50.1-17.2-32.2,3.8-63.4,4.2-89.4-20-20.5-19.1-43.4-36-65.7-53.2-3.1-2.4-10.8-3.1-14.1-1.2-15.4,8.9-30.1,18.9-44.9,28.7-10.1,6.6-18.1,15.7-33.3,14.4-15.8-1.3-18-11.1-21-21.5-3-10.4-.8-18.5,9.6-25.2,23.5-15.3,46.7-31,69.2-47.5,10.9-7.9,18.4-11.5,30.9-.6,22.5,19.5,48.5,35.5,71.1,54.8,28.1,24,59.7,28.3,95.2,20.6,30-6.5,35.9-3.6,53.9,20.7,14.7,19.8,30.6,38.8,45.5,58.5,3.9,5.2,6,11.7,7.4,14.6h0Z"/>
  <path class="st0" d="M627.9,395.8c-36.5,2.9-73.1,5.6-109.6,8.6-27.8,2.3-55.5,5.5-83.3,6.6-5.9.2-13.1-6.1-17.8-11-3.8-3.9-5-10.1-7-15.5-4.6-12.2,1.3-21.3,15.3-22.3,46.3-3.4,92.7-6.2,139-9.5,18.1-1.3,36.3-2.9,54.3-5.1,22.4-2.8,42.7,13.7,41,34.3-.7,9-16.3,17.6-31.8,13.9h0Z"/>
  <path d="M842.4,2381c-7,3-14.2,7.3-22,8.9-7,1.5-17.2,2.7-21.8-.7-7.8-5.9-15.6-15.1-17-23.8-.6-4,13.2-12,21.8-14.9,57.4-19.1,104.4,4.1,151.6,31.3,29.9,17.2,46,42.1,58.9,70.2,6.8,14.6-.9,30-15.7,33.1-10.6,2.2-30-13.6-31.8-22.7-2.4-11.8-4.8-26.5-13.3-33.6-17.8-14.9-38.5-27.6-60-37.4-14.7-6.7-32.8-6.9-50.8-10.3h0Z"/>
  <path d="M833.4,2158.7c.2,14.6-4.7,17.4-21,16.2-11.4-.8-23,1.9-34.5,2.3-36.2,1.2-72.3,1.8-108.5,3.4-9.5.4-18.8,4.6-28.3,5.6-6.2.6-14.8.7-18.5-2.7-6.8-6.2-12.3-14.7-15.5-23.1-4.5-11.8,2.4-20.1,16.4-20.9,49.6-2.9,99.2-5.4,148.8-7.8,12-.6,24-.2,36,.2,9.9.3,24.8,16.7,25,26.9h0Z"/>
  <path d="M590.8,459.3c3.1,30.8,5.7,62.1,9.5,93.3,2.7,21.8,7,43.5,10.3,65.3,1.8,11.9-3.5,20.8-16.5,22.7-13.2,2-22.7-2.6-28-15.7-15.3-37.9-16.3-77.3-15.9-117,.1-11.3,0-22.7-.6-34-.9-18.8,3.8-22.7,23.8-18.7,4.8,1,9.7,2.2,17.4,3.9h0Z"/>
  <path d="M691.5,1738.7c29.6-2.8,59.3-5.1,88.9-8.6,16.1-1.9,32.5,11.8,35.9,27.6,2.4,11.1-5.7,19.6-17.9,20-30.1.9-60.2,1.3-90.2,3.1-18.5,1.1-36.9,4.6-55.3,6.8-10.8,1.3-19.8-.8-22.6-12.4-1.2-4.9-2.5-9.9-3.8-14.8-2.8-10.3-.8-16.4,12.8-17.6,17.4-1.5,34.5-4.9,51.8-7.6.2,1.2.4,2.4.5,3.6h0Z"/>
  <path d="M788,576c.3,33.9-13.4,42.8-44.6,30.2-9.5-3.8-18.5-9.4-26.3-15.7-16.4-13.2-19.7-26.4-9.1-44,7.2-11.8,16.9-23.1,27.9-32,14.6-11.8,32.5-3.9,41.6,17.3,4.1,9.5,6.8,19.5,9.2,29.5,1.4,5.5,1,11.3,1.2,14.7h0Z"/>
  <path d="M452.1,570c0,9.5-15.3,19.1-31.2,21.2-16.7,2.2-27.2-2.5-36.4-7.9-14.3-8.5-26.6-17.3-14.8-28.7,1.4-1.3,2.6-3.4,4.8-3.7,14.9-2,29.8-4.5,45-5,17.4-.5,20.4,7.6,26.4,12.9,4.4,3.9,4.9,8.8,6.2,11.2h0Z"/>
  <path d="M2631.9,2013.6c-2.8,26.4-36.5,48-57.9,33.5-11.4-7.7-19.6-26.2-19.6-39.8,0-14.4,7.9-30.6,26.6-37.9,21.6-8.5,27.9-7.9,38.6,11.4,5.6,10.2,8.3,21.8,12.4,32.8h0Z"/>
  <path class="st0" d="M299.6,2002.1c-.4,15.7-17.4,37.6-30,41.4-13.9,4.2-22.2-5-30.2-12.2-13.6-12.3-15.5-27.9-9.7-44.1,4.9-13.5,8.7-28,28.1-30.7,14.7-2,29.1,6.1,36.2,23.2,3.3,8,4.3,16.9,5.6,22.4h0Z"/>
  <path d="M897.1,1090.7c-2.4,19.6-11.5,33-29.7,37.7-15.8,4-25.9-6.2-32.1-16.8-9.6-16.3-23.8-32.3-8.8-53.4,13.6-19,40.1-22,53.5-3.1,7.6,10.7,11.5,23.7,17,35.7h0Z"/>
  <ellipse cx="2744" cy="471.2" rx="54" ry="170.4" transform="translate(-36.9 336.9) rotate(-7)"/>
</svg>