<?xml version="1.0" encoding="UTF-8"?>
<svg id="Layer_1" data-name="Layer 1" xmlns="http://www.w3.org/2000/svg" viewBox="0 0 512 512">
  <defs>
    <style>
      .cls-1 {
        fill: #ff0d00;
      }
    </style>
  </defs>
  <path class="cls-1" d="M473.72,176.35c-.61-10-1.11-19.77-1.82-29.53-.73-10.04.04-19.99.86-30,.63-7.69.26-15.48-.21-23.2-.57-9.5-1.84-18.96-4.43-28.21-.7-2.52-1.27-5.11-2.39-7.46-.46-.97-2.18-1.92-3.4-2.01-3.64-.27-7.33-.26-10.99-.08-4.7.24-9.38.88-14.09,1.12-4.38.23-6.17,3.16-7.5,6.2-2.87,6.59-2.87,13.61-1.81,20.45,1.44,9.34,4.51,18.33,8.64,26.99,4.91,10.29,8.52,20.97,9.77,32.2.41,3.69-.22,7.46-.17,11.2.06,4.71-.13,9.49.61,14.12,1.46,9.1-.17,17.62-4.76,25.59-2.23,3.88-6.22,5.82-11.12,6.2-9.01.7-17.22-1.43-24.67-5.96-2.27-1.38-4.09-3.49-5.83-5.49-6.45-7.37-8.03-16.16-7.55-25.26.23-4.4,1.24-8.9,2.79-13.06.84-2.24-.12-3.27-1.03-4.76-.49-.8-.8-1.69-1.19-2.55.96-.27,1.92-.54,2.88-.8,2.08-.57,4.18-1.07,6.23-1.72,1.15-.36,2.19-1.03,3.32-1.46,2.15-.82,4.65.22,5.5,2.21,1.34,3.17,2.77,6.31,3.99,9.52.29.76.31,2.07-.18,2.52-.55.5-1.91.58-2.79.37-1.76-.43-3.42-1.19-5.14-1.79-2.06-.72-3.73-.62-4.52,1.72-2.93,8.69-3.1,17.22.01,26.04,2.44,6.9,7.5,11.14,14.23,13.3,8.33,2.67,17.42,1.82,21.05-8.95,1.69-5.01,1.51-9.94.97-15.12-.74-7.17-.53-14.45-.41-21.68.17-10.04-2.58-19.4-6.47-28.66-3.49-8.31-6.28-16.86-9.42-25.3-2.75-7.41-3.8-15.05-3-22.81.41-3.92,1.81-7.76,2.69-11.64.37-1.64.72-3.3.79-4.97.09-2.19,1.17-3.48,3.58-3.67,6.27-.48,12.54-.94,18.81-1.36,4.18-.28,8.37-.67,12.56-.66,9.2.02,13.79,3.71,15.65,12.03,1.26,5.64,3.16,11.2,3.98,16.89,1.22,8.53,1.76,17.14,2.56,25.72.22,2.35.23,4.71.47,7.05.72,7.01-1.15,13.86-1.42,20.8-.23,6.02-.05,12.06.19,18.08.44,11.18,1.12,22.36,1.53,33.54.09,2.33-.44,4.69-.85,7.01-.99,5.6-1.67,11.28-3.23,16.74-2.28,7.97-2.77,16.41-6.85,23.91-1.32,2.43-3.21,4.61-4.86,6.88-.98,1.34-2.31,2.53-2.96,3.98-3.33,7.47-10.11,9.67-17.92,10.81-5.87.86-11.48-.4-17.2-.88-3.57-.3-7.17-.25-10.74-.57-6.23-.56-11.04-3.54-15.99-7.04-5.35-3.79-9.16-8.68-13.65-13.07-8.66-8.47-15.05-18.23-18.72-29.49-1.79-5.5-4.61-10.79-5.72-16.39-1.27-6.42-1.74-13.1-1.5-19.64.22-5.93,1.98-11.8,2.83-17.72.31-2.15-.02-4.37-.1-6.56-.18-4.77-.28-9.55-.63-14.31-.1-1.35-1.02-2.63-1.42-3.97-.78-2.66-1.55-5.32-2.17-8.01-.86-3.79-1.66-7.6-2.33-11.42-.86-4.95-1.6-9.93-2.33-14.9-.33-2.25-.46-4.53-.8-6.78-.59-3.85-1.38-7.68-1.91-11.53-.88-6.34-1.94-12.59-5.06-18.43-.51-.95.2-2.9,1.04-3.88.53-.63,2.44-.69,3.53-.38,2.84.79,4.35,2.87,5.03,5.49.77,2.98,1.7,5.94,2.25,8.96.75,4.15,1.16,8.36,1.81,12.52.85,5.46,1.81,10.9,2.71,16.35.48,2.95.83,5.92,1.42,8.86,1.55,7.79,3.29,15.56,4.75,23.36.96,5.1,1.89,10.24,2.21,15.4.27,4.42-.16,8.9-.62,13.32-.32,3.12-1.34,6.17-1.79,9.29-1.5,10.43-1.12,20.67,3.35,30.6,2.08,4.61,3.48,9.49,5.3,14.21.55,1.43,1.4,2.77,2.22,4.09,2.53,4.08,4.76,8.37,7.77,12.12,3.21,4.02,7.06,7.62,10.85,11.21,2.79,2.64,5.63,5.44,8.99,7.32,4.76,2.66,10,4.42,15.8,4.56,4.35.11,8.7,1.43,13.01,1.29,4.27-.14,8.61-1.15,12.7-2.39,1.75-.53,3.05-2.53,4.41-3.98,1.54-1.64,2.84-3.48,4.39-5.11,3.76-3.96,5.97-8.7,7.3-13.68,1.89-7.09,3.24-14.3,4.83-21.46.83-3.72,1.87-7.41,2.44-11.16.58-3.78.7-7.62,1.01-11.23Z"/>
  <path class="cls-1" d="M445.86,288.52c2.37.85,2.94,3.06,3.26,5.14.22,1.44-.82,2-2.31,1.95-3.14-.12-6.27-.13-9.4-.33-1.6-.1-2.9-.82-2.98-2.54-.11-2.2-1.31-3.73-3.22-4.92-.79-.49-1.47-1.15-2.18-1.76-4.4-3.78-9.5-6.54-15.43-7.29-1.81-.22-4.36,1.26-5.8,2.64-2.12,2.04-4.39,1.74-6.75,1.36-1.46-.23-2.85-.77-4.1-1.52-3.8-2.29-7.02-1.09-9.98,1.44-2.98,2.56-4.25,5.79-3.16,9.47,1.09,3.66,2.55,7.22,3.87,10.82.05.14.12.27.2.4.27.45.83.67,1.37.56,1.76-.38,3.49-.61,4.98-1.3,3.93-1.83,7.84-1.14,11.86-.6,3.66.49,4.99-.14,5.48-2.65.12-.6-.3-1.18-.95-1.33-3.46-.78-5.25-2.87-4.66-5.79.16-.77,1.21-1.66,2.07-1.98,2-.74,4.22-.99,6.2-1.76,2.24-.86,3.87-.54,5.24,1.28,1.44,1.92,3.1,3.73,4.34,5.75.55.89.73,2.43.25,3.25-.36.6-2.07.54-3.19.72-.04,0-.08.01-.12.02-.44.04-.84.27-1.04.64-1.14,2.11-2.15,4.04-3.22,5.95-1.32,2.36-3.61,3.33-6.4,2.85-5.33-.92-10.62-1.36-15.79.82-2.41,1.02-2.18,2.85-2.05,4.75.06.96.1,2.7-.19,2.77-1.45.33-3.07.47-4.52.19-4.41-.82-4.35-4.26-4.88-7.43-.91-5.45-1.94-10.91-4.78-15.86-1.36-2.39-2.85-4.72-4.41-6.99-1.55-2.25-6.75-3.6-10.07-2.77-1.26.32-2.61.49-3.76,1.03-1.1.52-2.21,1.29-2.89,2.21-.95,1.29-1.37,2.62-3.39,3.3-1.17.4-2.08,2.85-2.13,4.4-.13,4.37.16,8.74,2.74,12.71,1.25,1.92,2.78,3.11,5.2,3.09,8.72-.06,15.67,7.72,17.22,14.46,1.1,4.76,2.88,9.38,4.42,14.08.14.43.53.73,1,.81,3.34.56,5.36,3.06,5.02,6.57-.06.58-.43,1.21-.83,1.68-1.42,1.61-2.9,3.19-4.41,4.73-1.06,1.08-2.19,2.93-3.33,2.96-2.64.07-4.97-1.18-6.22-3.67-.47-.93-1.05-1.99-1.91-2.55-2.97-1.93-3.53-4.66-3.15-7.65.07-.55,1.3-1.31,2.05-1.37.54-.04,1.09.19,1.71.46.62.28,1.37.03,1.67-.55.2-.38.35-.73.33-1.08-.42-6.25-1.1-12.46-4.74-17.98-2.31-3.51-5.7-4.98-10.14-4.92-3.64.05-5.48-2.76-7.33-5-4.57-5.53-6.12-11.94-5.22-18.83.16-1.19.79-2.31,1.13-3.48.52-1.77.97-3.55,1.45-5.33.15-.53.16-1.34.53-1.54,2.78-1.53,5.51-3.24,8.51-4.28,1.82-.64,3.83-.8,6-1.03.99-.1,1.46-1.18.83-1.89-2.33-2.66-4.44-5-6.36-7.47-1.99-2.56-3.73-5.3-5.49-8.01-4.55-7.01-8.59-14.29-10.37-22.35-1.62-7.35-2.8-14.79-3.77-22.24-.67-5.14-.88-10.35-.88-15.53,0-10.63-.38-21.31.62-31.86.92-9.73,3.18-19.37,5.3-28.97,3.28-14.88,2.63-29.45-3.18-43.7-4.42-10.83-5.7-22.1-6-33.55-.02-.73-.04-1.47-.17-2.19-.32-1.67-.18-3.81-1.25-4.83-.8-.76-3.21-.02-4.9-.04-8.56-.14-17.12-.35-25.67-.46-4.07-.05-4.55.61-3.83,4.23.46,2.32.75,4.66.89,7.01.46,7.55.76,15.11,1.25,22.66.45,7.08,1.08,14.15,1.6,21.22.2,2.81.2,5.63.48,8.43.22,2.16.7,4.3,1.17,6.43.45,2.06,1.22,4.17-1.07,5.73-.49.34-1.47.63-1.87.41-2.6-1.47-5.01-3-6.69-5.63-3.58-5.63-7.45-11.12-11.57-16.43-2.06-2.66-5.89-3.39-9.01-3.03-4.72.55-8.24-1.43-11.73-3.44-6.92-4-13.48-8.54-18.38-14.7-2.52-3.17-4.56-6.69-6.62-10.15-2.58-4.33-4.88-8.79-7.49-13.11-.45-.74-1.8-1.4-2.76-1.44-5.93-.24-10.97-2.68-16.89-3.02-2.3-.13-7.64-1.61-11.41-3.4.97,9.8,1.74,19.63,2.69,29.44.41,4.17-.67,6.29-3.67,6.41-1.71.07-2.92-.42-2.9-2.97.01-1.38-.35-2.75-.42-4.14-.08-1.39-.02-2.79-.02-4.19.08,0,.16-.02.23-.02-.61-9.05-1.29-18.08-1.8-27.14-.11-1.96.08-4.15.71-5.92.49-1.36,1.44-2,2.28-1.39,5.12,2.04,16.59,8.49,21.79,8.55,2.78.03,5.55.27,8.32.46.87.06,1.86.56,2.57.31,3.33-1.18,5.28.92,7.38,2.54.56.43,1,1.49.83,2.11-.49,1.84.56,3.02,1.42,4.47,2.37,3.97,4.67,8.01,6.63,12.16,4.29,9.11,11.59,15.52,20.81,20.16,1.84.92,4.34.81,6.55.99,7.44.62,13.57,3.4,18.11,9.01.79.98,1.61,1.95,2.47,2.9.78.86,2.29.28,2.2-.84-1.54-19.39-.99-38.92-4.57-58.47-.1-.54.21-1.06.76-1.27,1.97-.77,3.81-2.1,6.8-1.98,8.83.36,17.7-.12,26.56-.33,1.12-.02,2.23-.38,3.33-.59.17-.03.38-.22.48-.17,3.61,1.71,8.4.6,11.28,3.83.77.87.73,2.44.87,3.71,1.04,9.36,1.83,18.74,3.13,28.06.5,3.57,2.01,7.02,3.24,10.48,3.02,8.48,5.36,17.04,5.94,26.04.49,7.8-.34,15.37-2.06,22.98-1.86,8.22-3.48,16.5-4.78,24.81-.6,3.8-.17,7.75-.23,11.62-.12,8.14-.33,16.27-.34,24.41,0,3.57.18,7.13.52,10.68.52,5.46,1.17,10.92,1.97,16.36,1.35,9.2,5.24,17.68,9.97,25.7,4.22,7.16,9.17,14,15.75,19.64,1.45,1.24,2.94,2.47,1.98,4.84-.17.43.61,1.19,1.39,1.97.51.5,1.37.49,1.86-.03,1.69-1.8,3.18-3.48,4.84-4.99,3.62-3.28,8.89-4.03,13.52-2.13.96.4,1.99.66,2.91,1.13,2.29,1.16,3.83.84,5.56-1.21,1.74-2.06,4.29-2.73,7.49-2.34,8.87,1.1,15.59,5.86,22.51,10.42"/>
  <path class="cls-1" d="M77.63,251.03c2.96,1.24,5.22,1.08,6.89-1.32,2.08-2.98,5.27-4.48,8.27-6.17,6.76-3.81,14.03-6.21,22.1-5.94.32.01.65-.11,1.74-.32-1.35-1.24-2.3-2.17-3.32-3.04-2.31-1.97-4.88-3.73-6.9-5.92-1.89-2.06-1.82-4.68-1.24-7.36.92-4.26,1.44-8.6,2.27-12.88.64-3.32,1.5-6.61,2.26-9.92.25-1.09.78-2.19.76-3.27-.04-1.52-1.08-2.43-2.82-2.1-5.45,1.01-10.43,3.26-14.33,6.75-1.77,1.58-1.79,4.79-2.75,7.2-2.74,6.91-4.95,14.08-10.62,19.62-2.01,1.96-4.39,3.21-7.48,2.96-1.3-.11-2.63.09-3.95.08-3.47-.04-6.31,1.06-8.35,3.76-.71.94-4.86.9-5.96-.19-1.22-1.21-.97-2.58.02-3.97,3.2-4.52,7.63-7.04,13.46-6.46,5.65.57,8.33-2.78,10.2-6.52,2.7-5.37,5.85-10.64,6.45-16.81.23-2.36,1.52-4.53,3.76-6.2,4.96-3.7,10.55-6.12,16.71-7.26,4.77-.88,10.2,2.6,12.09,6.86,1.13,2.56,1.01,5.03.49,7.59-.83,4.11-1.74,8.21-2.5,12.33-.68,3.67-1.37,7.36-1.68,11.06-.11,1.33.5,3.06,1.46,4.03,1.38,1.4,3.35,2.32,5.12,3.36,2.54,1.5,4.25,3.51,4.99,6.27.22.81.67,1.79,1.35,2.23,6.1,3.9,12,8.04,19.35,10,6.59,1.76,13.25,1.64,19.86,1.19,5.63-.38,11.31-1.32,16.74-2.78,7.19-1.93,14.16-4.56,21.2-6.98,1.02-.35,1.76-1.39,2.78-1.75,3.57-1.28,4.69-.76,7.71,3.2-.69,2.84-2.78,3.92-5.63,4.74-5.4,1.55-10.55,3.83-15.96,5.36-5.38,1.52-10.92,2.58-16.43,3.67-3.55.7-7.16,1.31-10.78,1.58-5.6.43-11.23.42-16.77-.64-7.46-1.42-13.94-4.73-20.49-8.31-6.78-3.72-14.35-5.56-22.59-3.1-6.91,2.07-12.61,5.54-17.33,10.5-2.31,2.43-3.41,5.21-3.19,8.69.46,7.14.3,14.32.55,21.48.29,8.22.8,16.43,1.13,24.64.13,3.26-.02,6.53.07,9.8.1,3.56.32,7.12,1.09,10.92,1.4-1.89,2.88-3.73,4.16-5.68,1.65-2.51,2.76-2.95,5.55-1.41,2.63,1.45,5.15,3.08,7.61,4.76,1.46,1,2.62,1.42,4.08-.01,2.75-2.71,5.65-5.29,8.45-7.95,1.33-1.27,3.61-1.39,5.19-.02,1.01.88,1.81,1.98,2.66,3.02,2.2,2.7,4.38,5.41,6.98,8.64,2.06-2.49,4.2-4.53,5.64-6.94,2.08-3.49,5.05-4.18,8.29-1.56,2.76,2.23,5.66,4.32,8.4,6.57,1.33,1.09,2.14.82,2.84-.5.7-1.31,1.37-2.63,2.06-3.95,2.41-4.63,2.35-4.51,7.87-1.8,5.6,2.75,8.75,7.51,11.18,12.68,4.12-.69,5.18,0,5.45,3.92.22,3.14.23,6.31.1,9.46-.11,2.7-1.23,3.3-3.92,2.26-3.14-1.22-6.3-2.42-9.29-3.91-.88-.44-1.62-1.84-1.68-2.84-.14-2.49.3-5.01.21-7.51-.05-1.49-.57-3-1.08-4.44-.2-.56-1.01-.9-1.4-1.43-.89-1.21-1.6-1.07-2.3.12-1.46,2.49-2.83,5.04-4.45,7.44-.55.82-1.7,1.7-2.65,1.77-.96.07-2.23-.6-2.98-1.31-3.26-3.03-6.34-6.21-9.55-9.28-1.37-1.32-2.25-.09-2.94.78-2.07,2.57-4.04,5.21-6.03,7.83-1.75,2.3-3.78,2.47-5.66.38-2.12-2.35-4.24-4.72-6.22-7.18-1.03-1.27-1.76-2.75-3.02-4.76-3.8,3.29-7.17,6.08-10.36,9.03-1.7,1.57-2.87,1.75-4.64.29-2.8-2.3-5.65-4.55-8.88-7.14-2.07,2.76-3.87,5.19-5.7,7.6-.63.83-1.19,2.08-2.05,2.33-2.15.61-2.18,1.88-2.1,3.54.28,5.95.43,11.9.67,17.86.41,10.02.88,20.03,1.26,30.05.12,3.09.07,6.18,0,9.28-.06,2.51.88,4.34,3.37,5.57.88.43,1.71,1.42,2,2.31.88,2.72,2.81,4.49,5.64,4.83,2.94.36,5.74-.84,7.06-3.38,2-3.83,3.62-7.85,5.25-11.85,2.64-6.49,6.84-9.1,14.26-9.06,3.06.02,6.13-.3,7.82,2.63.57.99.87,2.69.33,3.49-.59.87-2.29,1.17-3.56,1.53-.49.14-1.16-.2-1.74-.36-6.65-1.86-9.51,2.4-11.51,6.95-.62,1.41-.8,2.99-1.16,4.5-1.36,5.82-4.91,9.97-10.99,11.95-3.44,1.12-6.92.63-10.07-1.11-1.58-.87-3.01-1.96-4.55-2.9-.48-.29-1.1-.36-1.62-.6-1.47-.68-2.92-1.4-4.38-2.1-.07-.03-.07-.17-.13-.2-4.78-2.42-3.44-6.7-3.55-10.44-.46-15.24-.67-30.48-1.22-45.72-.64-17.75-1.59-35.49-2.3-53.24-.38-9.52-.5-19.04-.78-28.56-.16-5.28-.4-10.56-.64-15.83-.03-.55-.28-1.12-.57-1.61-1.7-2.79-1.46-5.24,1.55-7.42Z"/>
  <path class="cls-1" d="M394.11,447.79c4.16-11.28,8.88-22.21,8.5-34.28-.26-8.39.03-16.79-.15-25.19-.09-4.44-.9-8.87-.96-13.31-.06-4.17.44-8.35.72-12.52.03-.42.34-.83.34-1.24.02-2.42.38-4.41,3.6-5.18,2.43-.58,4.47-.77,6.95.11,4.08,1.44,5.89,3.97,6.61,7.78,1.13,5.95,2.75,11.81,3.92,17.75.59,3.01,1.04,6.13.86,9.17-.32,5.29,1.43,10.15,3.26,14.94,1.09,2.84,2.93,5.59,5.05,7.91,4.53,4.99,5.67,17.37.57,22.92-.63.68-1.24,1.65-1.26,2.5-.08,4.19.02,8.38.1,12.57.01.67.34,1.33.38,2,.21,3.78,1.72,4.86,5.91,4.55,3.69-.28,7.42-.2,11.1-.54,1.17-.11,2.61-.82,3.31-1.68,10.26-12.63,12.21-27.09,11.73-42.39-.31-9.99-3.52-19.14-6.8-28.38-2.07-5.84-4.72-11.5-6.76-17.34-1.16-3.31-1.58-6.71-.48-10.34,1.86-6.18,4.74-11.72,8.8-16.95,3.54-4.55,6.54-9.52,9.24-14.54,3.45-6.42,3.37-13.44,2.73-20.39-.47-5.1-2.68-9.64-5.72-13.98-3.59-5.12-6.33-10.8-3.93-16.99,1.51-3.88,3.96-7.52,6.48-10.96,1.55-2.11,4-3.68,6.14-5.38,1.16-.92,2.25-.71,3.34.46,3.42,3.66,3.26,3.42-.64,6.79-4.44,3.83-8.69,8.13-8.67,14.13.01,2.83,1.03,6.08,2.77,8.4,8.08,10.81,9.57,22.66,7.11,35.12-.66,3.36-2.48,6.63-4.3,9.67-3.8,6.35-7.98,12.5-11.96,18.75-4.36,6.84-5.35,13.85-1.64,21.31,1.87,3.78,3.07,7.83,4.6,11.76.9,2.3,1.72,4.64,2.79,6.88,3.11,6.5,4.1,13.42,4.91,20.37,1.1,9.39.47,18.74-1.59,27.96-1.78,7.94-6.02,14.85-11.21,21.33-.82,1.02-1.91,2.04-2.07,3.34-.06.51-.16.61-.86.73-2.04.36-4.13.29-6.16-.15-2.9-.64-5.87-.43-8.91-.11-3.28.16-6.67.26-9.88.21-6.02-.69-8.39-3.3-8.47-9.2-.09-6.39.09-12.79.39-19.18.07-1.45.87-3,1.75-4.26,3.67-5.23,2.96-10.6.53-15.89-1.09-2.36-3.16-4.32-4.44-6.62-4.03-7.23-4.79-15.11-5.63-23.06-.75-7.09-2.48-14.1-3.84-21.14-.13-.7-.71-1.32-1.15-2.12-2.57,3.18-2.38,6.62-2.19,10,.26,4.78.84,9.54,1.06,14.32.38,8.29.88,16.58.81,24.87-.08,8.39-1.12,16.68-4.18,24.74-2.28,6.01-4.98,12.03-4.51,18.66.06.85-.38,2.23-1.03,2.52-2.61,1.16-5.36,2.56-8.12,2.67-1.15.05-3.48-2.92-3.48-4.52-.01-7.43-3.63-13.89-5.94-20.68-2.04-6.01-4.59-11.88-6.93-17.81-4.52-11.48-9.05-22.95-13.56-34.43-4.49-11.41-8.97-22.81-13.44-34.22-2.57-6.57-5.2-13.13-7.66-19.73-2.09-5.6-3.83-11.32-5.98-16.9-1.57-4.07-3.63-7.97-5.34-12-1.45-3.41-2.66-6.91-4.07-10.34-3.54-8.56-6.59-17.34-10.89-25.56-3.33-6.36-8.51-11.76-15.82-14.92-4.48-1.94-7.57-4.93-9.4-9.3-2.29-5.45-5.15-10.7-7.68-16.07-.58-1.24-.73-2.64-1.15-3.95-1.03-3.18-2.22-6.32-3.1-9.54-.48-1.77-1.11-3.85.99-5.16.68-.43,2.36-.52,2.77-.1,1.43,1.48,3.23,3.13,3.59,4.93,1.54,7.58,3.93,14.87,7.45,21.86,2.7,5.37,5.65,10.41,12.45,12.52,4.63,1.43,7.03,5.48,9.84,8.82,4.66,5.54,8.62,11.36,10.08,18.53.75,3.69,3.15,7.08,4.69,10.65,2.25,5.22,4.54,10.43,6.54,15.74,1.88,4.98,3.35,10.09,5.12,15.11.97,2.76,2.29,5.41,3.31,8.16,2.6,7,5.06,14.04,7.69,21.03,2.52,6.67,5.28,13.27,7.75,19.95,1.32,3.59,2.06,7.36,3.42,10.94,1.06,2.8,2.84,5.36,4,8.14,1.26,3.01,2.1,6.18,3.28,9.22,1.18,3.03,2.65,5.97,3.85,9,5.99,15.15,11.94,30.31,17.92,45.46.17.44.52.81.86,1.32Z"/>
  <path class="cls-1" d="M35.55,230.39c0-.6.1-1.2.31-1.76,2.92-7.87,4.95-14.85,12.52-19.74.78-.51,1.65-1.02,2.56-1.22,8.46-1.78,12.13-7.54,14.35-14.62.8-2.56,1.82-5.08,2.98-7.51,1.55-3.24,3.8-6,6.97-8.11,2.35-1.56,4.51-3.36,6.8-5,5.77-4.13,12.64-5.84,19.56-7.2,3.45-.68,7.04-.74,10.6-.93,1.3-.07,3.33.3,4.51.83,4.84,2.19,9.36,4.81,12.67,8.91.67.83,1.35,1.81,1.54,2.8,1.2,6.3,2.79,12.59,3.23,18.94.64,9.23,4.08,17.38,9.21,25.07.71,1.07,1.88,2.03,3.07,2.63,4.74,2.4,9.59,4.63,14.38,6.95,1.63.79,3.4,1.46,4.76,2.56.84.67,1.37,2.05,1.38,3.11,0,.64-1.19,1.72-1.97,1.83-1.46.21-3.23.26-4.49-.33-4.83-2.26-9.4-4.99-14.26-7.18-5.02-2.26-8.37-5.89-10.58-10.39-3.2-6.52-6.88-12.92-7.94-20.16-.6-4.1-.77-8.25-1.34-12.36-.43-3.13-.91-6.29-1.84-9.31-1.46-4.74-9.53-8.42-14.79-8.1-6.37.38-12.02,2.7-17.9,4.41-1.86.54-3.54,1.76-5.16,2.85-2.05,1.38-3.86,3.07-5.94,4.39-4.37,2.79-5.77,7.22-7.61,11.41-1.15,2.62-2.05,5.33-3.18,7.95-1.89,4.38-5.14,7.71-9.49,10.08-1.16.63-2.62.78-3.92,1.21-6.51,2.16-10.46,6.82-13.68,12.17-.09.14-.27.32-.23.43,1.49,3.84-1.08,7.36-.95,11.11.21,6.08.2,12.17.34,18.26.26,11.17.59,22.33.83,33.5.19,9.19.28,18.38.41,27.57.14,10.26.28,20.52.41,30.78.18,13.46.33,26.93.52,40.39.16,10.92.31,21.85.58,32.76.17,6.57.58,13.14.87,19.71.21,4.77.41,9.55.57,14.32.1,3.02.25,2.87,3.43,2.42,4.1-.58,8.47-.57,12.02,1.56,4.33,2.6,8.74,2.1,12.88.7,8.28-2.8,16.26-2.09,24.41.26,8.82,2.53,7.64.91,9.22-4.43,1.3-4.42,3.16-8.78,5.47-12.84,4.74-8.34,13.15-10.83,22.52-8.64,1.38.32,2.8,1.45,3.6,2.58.49.68.17,2.31-.43,3.07-.48.61-2,.94-2.93.77-9.14-1.68-15.02,1.34-18.85,9.25-1.84,3.8-3.16,7.59-3.81,11.73-.79,5.05-3.7,6.65-9.14,5.6-2.47-.47-4.86-1.27-7.29-1.92-7.53-2.01-14.83-.86-22.17,1.1-4.79,1.28-9.5,1.02-14.05-1.59-5.1-2.93-9.85-1.93-14.41,1.72-.21.17-.43.31-.68.43-2.53,1.26-5.59-.05-6.6-2.68-.29-.76-.57-1.48-.8-2.09-.21-.54-.32-1.12-.33-1.7l-2.68-228.34Z"/>
  <path class="cls-1" d="M157.92,82.47c8.79,2.55,17.28,4.68,25.3,8.34,2.35,1.07,5.31.83,7.67,1.88,2.03.9,3.8,2.62,5.26,4.32.4.46-.48,2.97-1.2,3.18-3.24.96-4.82,3.6-6.71,5.83-2.67,3.17-5.16,6.51-7.38,10-.58.92-.39,2.96.3,3.9,3.11,4.25,6.44,8.35,9.84,12.38,6.35,7.51,12.31,15.29,17.52,23.62.95,1.52.72,2.5-.52,3.54-2.91,2.44-5.86,4.84-8.68,7.36-1.4,1.25-2.45,2.88-3.88,4.11-7.89,6.79-12.97,14.98-10.83,25.5,1.04,5.1,4.2,9.79,6.43,14.65.21.46.71.81.87,1.27.54,1.6,2.02,3.22-.39,4.7-3.31,2.03-4.36,2.16-6.19-.37-6.19-8.55-10.06-17.93-9.29-28.59.51-7,3.12-13.13,8.78-17.96,4.8-4.1,9.14-8.73,13.55-13.25.51-.52.56-2.13.12-2.79-2.93-4.45-5.86-8.92-9.16-13.12-5.28-6.72-10.86-13.2-16.27-19.82-2.15-2.63-2.13-6.32-.2-8.85,3.66-4.78,7.24-9.6,11.03-14.63-3.32-1.37-6.67-2.94-10.15-4.13-3.91-1.33-7.92-2.46-11.95-3.41-2.86-.67-5.82-1.08-8.75-1.28-3.36-.23-6.56-3.53-6.22-6.83.03-.31.14-.67.34-.91,3.07-3.6,6.26-7.11,9.19-10.82.75-.95,1.2-2.65.9-3.78-.86-3.3-2.12-6.51-3.33-9.71-1.2-3.19-4.27-2.47-6.54-2.41-12.28.3-24.55.85-36.82,1.4-12.17.55-24.34,1.23-36.51,1.81-3.18.15-6.39,0-9.55.31-1.07.11-2.42.99-2.99,1.9-1.91,3.07-3.49,6.34-5.27,9.49-3.81,6.74-7.65,13.47-11.52,20.19-.88,1.53-1.19,2.87-.83,4.79.85,4.54.97,9.2,1.46,13.81.59,5.54,1.11,11.1,1.94,16.61.86,5.67,2.05,11.29,3.11,16.93.09.5.31.98.53,1.44,2.16,4.58,1.61,5.83-3.47,7.82-4.29,1.68-7.11,5.98-7.09,10.53.05,9.81.02,19.62.03,29.43,0,.77-.14,1.65.18,2.3,1.07,2.21.55,3.49-1.52,5.04-1.72,1.29-3.05,1.36-4.76.72-2.04-.76-3.6-3.52-3.43-5.59.41-4.93.87-9.87,1.02-14.81.18-5.85.15-11.7.01-17.55-.05-2.09-.68-4.16-1-6.24-.24-1.52.41-2.34,1.84-3.22,2.64-1.63,5.13-3.61,7.33-5.78.91-.89,1.37-2.71,1.25-4.03-.53-5.62-1.45-11.2-2.04-16.82-.86-8.11-1.47-16.25-2.38-24.35-.21-1.87-1.29-3.63-1.72-5.49-.31-1.34-.79-3.08-.21-4.1,4.45-7.76,9.17-15.36,13.75-23.05,1.9-3.19,3.77-6.4,5.41-9.71.39-.79-.03-2.08-.33-3.06-.93-3.03.06-3.83,3.28-3.68,4.45.2,8.92-.18,13.38-.36,7.53-.31,15.06-.66,22.59-1,11.48-.52,22.95-1.05,34.43-1.55,5.03-.22,10.06-.29,15.08-.56,2.16-.11,4.3-.73,6.45-.75,1.54-.02,3.11.47,4.61.92,7.29,2.22,8.39,9.01,11.12,14.6.49,1,.7,2.12,1.21,3.11,1.14,2.21.64,4.14-.81,5.98-2.14,2.71-4.32,5.38-6.36,8.16-.55.75-.64,1.81-.87,2.53Z"/>
  <path class="cls-1" d="M203.58,356.24c8-.11,15.96.56,24.02-.78,6.42-1.07,13.08-.91,19.64-1.2,2.76-.12,5.59-.29,8.28.14,1.12.18,1.95,1.87,2.92,2.88-.85.65-1.64,1.74-2.58,1.87-2.84.38-5.75.3-8.61.56-6.32.56-12.62,1.41-18.95,1.77-5.39.31-10.82.16-16.23.1-3.12-.03-6.24-.3-10.14-.49,1.02,1.18,1.49,2.04,2.24,2.54,6.33,4.18,8.5,10.52,10.41,17.01,2.91,9.84,1.45,19.18-4.15,27.88-4.88,7.59-11.03,14.15-18.73,19.46-2.55,1.76-4.66,4.06-6.97,6.12.16.26.32.52.47.79,3.34-1.18,6.74-2.24,10.01-3.58,6.49-2.67,12.75-2.48,18.62,1.26,4.05,2.58,7.84,2.55,12.26.68,8.29-3.5,17.06-5.35,26.25-4.87,4.51.23,7.56,3.08,10.77,5.57,1.41,1.09,2.69,2.51,4.32,3.1,1.64.59,3.77.8,5.45.36,4.2-1.08,8.28-2.55,12.36-3.99,7-2.47,13.59-.79,20.2,1.46,3.49,1.19,7.07,2.17,10.64,3.16,2.14.6,4.38.9,6.48,1.59,3.74,1.23,6.86-.08,9.4-2.26,3.95-3.4,8.04-6.84,11.15-10.88,4.65-6.03,3.32-12.81,1-19.4-.43-1.23-1.25-2.38-1.43-3.63-.12-.81.42-2.33.96-2.45.86-.2,2.39.19,2.91.84,5.63,6.96,7.49,14.91,5.24,23.23-.88,3.26-3.91,6.04-6.05,8.97-3.74,5.11-9.13,8.5-14.61,11.71-1.11.65-2.93.7-4.3.44-5.62-1.08-11.2-2.35-16.77-3.65-1.28-.3-2.4-1.15-3.67-1.55-3.69-1.16-7.37-2.35-11.13-3.28-4.5-1.11-8.29,1.46-12.35,2.52-2.81.73-5.37,2.26-8.11,3.28-5.06,1.89-9.15-.02-12.97-2.99-2.2-1.71-4.34-3.54-6.77-4.91-4.02-2.27-8.39-.87-12.58-.33-5.04.65-9.68,2.41-14.16,4.7-2.56,1.31-5.45,2.16-8.29,2.86-2.78.69-4.63-1.5-6.26-2.9-5.21-4.46-11.44-5.02-17.19-1.86-3.26,1.79-7.12,2.63-10.69,3.96-.79.29-1.43,1.02-2.23,1.21-1.52.36-3.23.91-4.63.57-1.94-.46-3.9-1.75-3.58-3.95.16-1.11,1.47-2.13,2.42-3.05.4-.38-2.88,5.08-2.11,4.87-3.4-1.93.62-8.88,3.39-11.22,5.11-4.33,10.4-8.5,15.13-13.16,6.71-6.61,12.24-13.99,14.31-23.16,1.92-8.51-.33-16.33-4.81-23.63-1.24-2.02-3.72-3.37-5.61-5.06-1.63-1.47-3.32-2.9-4.81-4.49-1.59-1.68-.97-3.31.84-4.84,1.62-1.36,2.65-3.33,4.15-4.84,5.93-6,5.99-13.36,5.17-20.67-1.01-8.95-4.62-17.19-9.27-25.08-1.75-2.97-3.43-6.13-4.28-9.39-1.68-6.45-.37-12.29,4.08-17.92,6.61-8.35,15.93-12.2,25.96-15.04,7.02-1.99,14.13-3.53,21.63-3.62,7.19-.09,14.36-.43,21.26,1.63,4.74,1.41,8.93,3.89,11.44,8.07.58.96.06,2.5.04,3.77-1.37-.08-2.97.23-4.07-.32-1.32-.66-2.12-2.16-3.34-3.08-1.53-1.15-3.12-2.62-4.91-3.01-3.96-.86-8.06-1.14-12.11-1.65-6.13-.77-12.14.28-18.09,1.34-7.56,1.34-14.58,4.08-21.52,7.27-5.18,2.38-8.72,5.87-11.64,10.13-4.22,6.15-3.46,12.46.35,18.46,5.16,8.12,8.44,16.87,10.81,25.95,1.71,6.57.64,13.15-.95,19.59-.44,1.78-2.11,3.31-3.31,4.9-.76,1.01-1.69,1.91-2.55,2.86.17.25.33.5.5.75Z"/>
  <path class="cls-1" d="M290.71,322.72c.57-1.41,1.47-2.79,1.65-4.24.6-4.89-.25-9.56-3.19-13.79-.37-.54-.6-1.17-.83-1.78-1.9-5.02-4.09-6.48-9.5-6.28-1.69.06-4.71,2.45-4.79,4.34-.23,5.43-.55,10.89-.14,16.29.47,6.23,1.72,12.41,2.53,18.63.65,5,1.14,10.01,1.73,15.02,1.24,10.59,2.26,21.22,3.84,31.77,1.11,7.46,4.33,14.46,8.47,20.84,2.45,3.77,6.63,6.58,10.07,9.78.41.38,1.07.56,1.65.73,7.14,1.99,17.51-2.36,21.17-8.47,2.45-4.08,3.19-8.36,3.36-12.88.11-3.02.46-6.03.46-9.04,0-3.81-.36-7.62-.35-11.43.01-4.63.35-9.26.35-13.88,0-3.91-.32-7.81-.47-11.72-.15-3.89-.36-7.78-.39-11.67-.04-4.65-1.27-9-3.34-13.2-1.57-3.18-4.25-4.81-7.97-5.13-2.02-.17-3.35.62-4.13,2.3-1.63,3.51-1.79,7.11-.26,10.65,2.01,4.65,4.32,9.19,6.3,13.84,2.31,5.41,3.22,11.09,3.69,16.89.42,5.26,1.65,10.46,1.96,15.72.32,5.43.37,11.03-3.9,15.5-1.89,1.98-3.98,3.85-6.25,5.45-.87.61-2.54.62-3.74.4-9.1-1.69-16.34-6.26-20.37-13.93-4.02-7.64-3.05-14.22,4.47-19.2,3.81-2.52,7.87-2.58,11.9.06,3.88,2.54,6.46,5.79,5.5,10.24-.38,1.76-2.36,3.75-4.18,4.58-2.5,1.15-4.58-.59-6.27-2.73.43-.75.82-1.66,1.43-2.43,1.66-2.09,1.59-4.5-.24-5.5-1.26-.69-4.25.81-5.36,2.51-3.1,4.74-1.81,9.06,1.23,13.3,1.68,2.35,3.94,3.95,6.43,5.58,4.47,2.92,7.99.77,9.74-2.91,1.47-3.09,2.28-6.71,2.23-10.09-.07-5.42-.8-10.87-1.78-16.23-1.12-6.15-2.78-12.21-4.27-18.3-.23-.93-.68-1.87-1.26-2.67-4.71-6.51-6.71-13.71-4.79-21.31,1.56-6.17,5.62-10.43,14.84-7.15,7.78,2.77,12.82,8.35,14.39,15.91,1.06,5.15.85,10.52,1.23,15.79.31,4.29.82,8.58.94,12.87.1,3.73-.28,7.47-.36,11.21-.22,10.58-.2,21.18-.67,31.75-.23,5.17-2.96,9.64-6.56,13.53-1.52,1.64-3.27,3.18-5.19,4.4-5.93,3.77-12.86,4.37-19.45,3.1-5.27-1.01-9.94-4.19-13.47-8.33-.86-1.01-1.93-1.88-2.77-2.91-1.26-1.54-2.64-3.06-3.57-4.78-4.12-7.59-6.73-15.69-8.29-24.02-.99-5.28-1.17-10.68-1.73-16.03-.77-7.35-1.53-14.7-2.36-22.04-1.09-9.7-2.42-19.39-3.28-29.11-.37-4.18-.11-8.46.37-12.64.58-5.09,5.95-9.76,10.81-9.17,7.23.88,13.59,2.91,16.69,11.25,1.41,3.8,3.71,7.43,4.42,11.32.63,3.47.27,7.37-.81,10.76-1.37,4.33-7.41,5.77-11.18,2.95-2.19-1.64-3.97-3.85-5.56-6.03-.51-.7-.2-2.45.44-3.18.49-.56,2.33-.66,3.15-.25,1.21.6,2.12,1.79,3.03,2.83.58.66.93,1.49,1.38,2.24l1.15.14Z"/>
  <path class="cls-1" d="M160.94,464.77c-2.78-.24-5.56-.59-8.34-.69-1.85-.07-3.75.06-5.55.4-2.59.5-4.79-.36-5.68-3.07-.88-2.67-1.41-5.47-1.74-8.25-.32-2.6.7-4.52,3.57-5.85,3.89-1.8,7.35-4.38,11.2-6.26,2.74-1.34,3.56-3.75,3.86-5.97.17-1.24-1.64-3.38-3.1-4.01-3.78-1.63-7.53-3.81-12.12-2.87-2.04.42-3.58-.38-4.18-2.39-.58-1.94.38-5.3,1.8-6.06.21-.11.51-.23.72-.18,4.65,1.07,9.68,1.47,13.82,3.46,3.64,1.75,7.55,4.09,8.96,8.41,2.12,6.5-.98,11.49-5.57,15.74-2.15,1.99-5.35,2.98-8,4.53-.81.47-1.89,1.27-1.91,1.95-.02.62,1.12,1.42,1.93,1.87.8.44,1.8.66,2.74.77,8.06,1,16.07.48,23.82-1.67,3.56-.99,7.03-2.64,10.14-4.56,4.93-3.04,10.41-3.64,15.99-3.8,1.38-.04,2.98,1.21,4.19,2.18,3.41,2.74,6.9,5.26,11.75,4.18,3.81-.85,7.54-1.98,11.29-3.06,4.87-1.4,9.71-3.01,14.92-1.6.08.02.18.05.26.03,5.26-1.59,7.63,2.31,10.55,4.93,2.63,2.36,5.76,3.15,9.62,1.41,5.11-2.3,10.14-4.78,15.09-7.37,4.69-2.46,14.26-4.17,20.08.43,1.43,1.13,2.62,2.6,4.18,3.52,3.27,1.93,7,.84,10.49.75,10.41-.26,20.81-.82,31.22-1.32,4.88-.23,9.76-.57,14.64-.9,2.49-.17,3.76,1.24,3.09,3.5-1.14,3.82-1.14,3.69-5.44,3.77-3.04.06-6.06.63-9.1.81-3.19.19-6.41.11-9.6.28-5.25.27-10.48.67-15.73.96-5.04.27-10.08.44-15.11.72-.71.04-1.81.31-2.01.75-.98,2.2-2.84,1.54-4.48,1.31-1.72-.24-2.37-1.28-2.9-2.93-2.14-6.72-6.15-8.12-14.17-5.79-3.99,1.16-7.4,3.95-11.19,5.8-3.55,1.73-7.18,3.34-10.9,4.72-2.97,1.1-5.68.16-8.34-1.47-2.03-1.24-3.64-2.61-4.78-4.61-.39-.68-1.42-1.27-2.28-1.45-3.77-.82-7.55-1.23-11.35,0-4.9,1.59-9.78,3.27-14.77,4.59-6.11,1.61-11.49.27-15.83-4.22-1.46-1.51-3.26-2.21-5.58-1.99-4.41.43-8.48,1.63-12.36,3.64-8.61,4.48-17.81,7.03-27.8,6.94Z"/>
  <path class="cls-1" d="M325.02,235.81c-3.83-3.91-7.23-7.77-11.08-11.19-3.71-3.3-7.89-6.15-11.87-9.2-2.02-1.55-4.09-3.06-6.05-4.67-2.3-1.89-2.49-3.92-.77-6.26,4.05-5.5,7.99-11.08,12.16-16.5,2.58-3.36,5.52-6.48,8.62-10.08-1.6,0-2.76,0-3.92,0-3.05.02-6.16.42-9.12-.06-1.78-.29-3.61-1.69-4.85-3.04-.95-1.04-1.1-2.57.5-3.98,3.98-3.51,7.7-7.27,11.43-11.38-.8.18-1.63.27-2.38.56-3.05,1.14-6.73-.86-7.52-3.88-.42-1.63.34-2.16,1.71-2.27,6.91-.53,13.54-2.11,20.19-3.89,1.43-.38,4.12,1.72,5.51,3.25,1.35,1.48-.19,2.93-1.6,4.09-5.32,4.33-10.59,8.72-16.54,13.64,4.38.21,7.97.55,11.55.49,2.95-.05,4.71,1.48,6.22,3.37,1.11,1.38.84,2.75-.56,4.12-8.66,8.45-16.43,17.52-22.7,27.68-1.05,1.7-1.11,2.71.72,4.06,4.86,3.58,9.61,7.29,14.19,11.17,3.21,2.72,5.91,5.97,9.13,8.68,1.74,1.46,3.27,2.8,3.44,5.04.07.96.28,2.06-.1,2.89-2.32,5.09-.07,9.58,2.92,13.33,1.36,1.71,3.98,2.73,4.21,5.27.26,2.79.36,5.61.29,8.42-.04,1.51-.99,2.33-2.86,1.84-3.73-.99-8.97-6.78-9.24-10.35-.04-.56-.15-1.25.14-1.67,2.67-3.91-.16-6.86-1.95-9.97-.66-1.14-1.72-2.11-2.22-3.3-.7-1.65-1.38-3.46,1.21-4.53.59-.25.86-1.16,1.2-1.66Z"/>
  <path class="cls-1" d="M285.48,180.11c-4.26.07-6.66-1.9-7.26-5.62-.2-1.25-.71-2.54-1.4-3.64-2.98-4.73-4.53-9.9-6-15.16-2.77-9.9-12.86-12.92-22.03-9.91-11.63,3.83-18.03,18.95-12.15,29.71,4.45,8.14,6.79,16.87,7.79,25.83.77,6.91.65,13.92.54,20.87-.05,2.98-1.01,5.96-1.72,8.9-.2.81-.8,1.72-1.52,2.22-3.28,2.28-6.53,4.65-10.06,6.57-3.3,1.79-7.23-.49-7.68-4.01-.31-2.49,1.66-3.45,3.42-4,6.14-1.92,9.28-5.22,9.56-11.49.3-6.85.29-13.71.15-20.57-.04-1.97-1.12-3.9-1.54-5.89-1.39-6.62-3.27-13.07-6.59-19.12-5.38-9.8-1.49-25.1,8.25-31.16,3.28-2.04,6.47-4.61,10.13-5.64,3.38-.95,7.43-.64,11.01,0,5,.88,9.38,3.23,13.07,6.7,3.38,3.18,5.11,7.1,6.65,11.16,1.88,4.95,3.85,9.89,5.42,14.92.94,3.02,3.66,5.82,1.97,9.33Z"/>
  <path class="cls-1" d="M160.11,132.81c.13-1.97-.35-3.87.44-4.6,1.59-1.49,2.81.54,4.2,1.19,2.71,1.27,5.41,2.6,8.25,3.55,2.48.83,4.15,2.24,5.27,4.36,1.04,1.98-.31,4.11-2.6,4.52-2.09.37-4.08,1.24-6.18,1.53-1.17.17-2.77-.03-3.62-.69-1.51-1.16-2.4-2.32-4.97-2.17-11.07.64-22.18.8-33.28,1.13-7.45.22-14.89.43-22.34.64-10.25.29-20.5.58-30.86.88-.49,1.39-1,2.58-1.34,3.82-.47,1.73-2.13,2.42-3.39,1.93-4.04-1.6-8.54-2.77-10.67-6.96-1.3-2.56-.86-3.46,1.63-5.06,1.7-1.09,3.24-2.48,4.56-3.96,2.22-2.49,3.56-2.63,5.86-.25.12.12.28.23.34.37,1.4,3.47,4.33,3.25,7.59,3.08,10.68-.54,21.37-.83,32.06-1.2,10.69-.36,21.37-.63,32.06-1.06,5.83-.24,11.65-.72,17-1.07Z"/>
  <path class="cls-1" d="M321.09,120.8c-2.19-1.19-4.5-2.07-6.25-3.54-1.05-.88-1.54-2.63-1.71-4.05-.64-5.38-1.06-10.79-1.55-16.19-.21-2.35-.33-4.71-.61-7.05-.73-6.13-1.47-12.26-2.3-18.37-.27-1.99-.92-3.93-1.22-5.92-.09-.59.41-1.82.6-1.81,1.58.05,3.41-.09,4.66.62,1.78,1.01,1.9,3.03,2.17,4.95.63,4.41,1.8,8.76,2.41,13.17.72,5.23,1.12,10.51,1.6,15.77.43,4.69.84,9.39,1.11,14.1.09,1.65.59,2.4,2.48,2.23,2.87-.25,5.76-.31,8.64-.54,2.22-.18,3.57.7,3.88,2.7.52,3.38-.09,3.84-2.56,4.74-1.95.71-3.78,2.06-5.24,3.5-3.05,3-5.83,6.22-8.69,9.38-1.69,1.87-4.09,2-6.13.27-2.14-1.82-2.18-3.87-.2-5.66,3.15-2.87,6.25-5.79,8.94-8.28Z"/>
  <path class="cls-1" d="M411.17,225.88c-4.56-.83-9.01-1-12.09-4.54-.97-1.11-2.69-1.64-3.72-2.72-1.75-1.84-3.4-3.8-4.7-5.93-.45-.74-.1-2.4.56-3.1,1.09-1.16,2.18-.35,3.25.65,3.69,3.45,7.31,7.18,13.01,7.61,2.42.19,4.93.22,7.31-.15,4.05-.62,8-1.74,12.04-2.41,6.31-1.05,11.08-4.75,15.34-8.57,3.13-2.81,4.76-7.06,7.03-10.69.61-.97.95-2.14,1.72-2.98,1.42-1.54,2.96-1.41,4.4.13,3.02,3.24,3.06,3.26.62,7.07-2.41,3.77-4.59,7.7-7.44,11.16-4.48,5.45-10.68,8.91-17.74,10.65-6.54,1.61-13.25,2.59-19.59,3.8Z"/>
  <path class="cls-1" d="M275.7,130.35c.04,2.41-1.14,3.4-2.78,2.69-1.9-.83-3.57-2.22-5.12-3.58-.98-.86-1.72-2.06-2.28-3.22-1.68-3.48-4.69-3.1-7.92-2.71-5.09.61-10.02.67-14.13-3.15-3.24-3.01-6.85-5.69-10.39-8.41-.49-.38-1.71-.49-2.23-.19-2.44,1.41-4.76,2.99-7.1,4.53-1.6,1.05-2.86,2.48-5.26,2.28-2.49-.21-2.85-1.75-3.32-3.4-.47-1.65-.13-2.92,1.51-3.98,3.72-2.41,7.37-4.91,10.95-7.5,1.72-1.25,2.9-1.81,4.89-.09,3.56,3.08,7.66,5.61,11.24,8.67,4.44,3.8,9.44,4.48,15.04,3.26,4.74-1.03,5.68-.57,8.52,3.27,2.32,3.13,4.84,6.13,7.2,9.24.62.83.95,1.85,1.18,2.31Z"/>
  <path class="cls-1" d="M118.14,81.46c-5.78.45-11.55.89-17.33,1.36-4.39.36-8.77.87-13.16,1.04-.93.04-2.07-.97-2.81-1.74-.6-.62-.8-1.6-1.11-2.44-.73-1.93.21-3.37,2.42-3.53,7.32-.53,14.65-.98,21.96-1.5,2.87-.2,5.73-.45,8.58-.81,3.54-.44,6.75,2.17,6.49,5.42-.12,1.43-2.57,2.78-5.03,2.2Z"/>
  <path class="cls-1" d="M152.05,395.27c-1.11.47-2.24,1.15-3.48,1.41-1.11.23-2.71.43-3.44-.11-1.24-.93-2.47-2.39-2.69-3.77-.1-.63,2.09-1.9,3.45-2.35,9.08-3.03,16.51.65,23.97,4.94,4.72,2.71,7.26,6.65,9.32,11.1,1.07,2.31-.14,4.74-2.49,5.23-1.68.35-4.74-2.15-5.03-3.59-.38-1.86-.76-4.19-2.1-5.32-2.81-2.35-6.09-4.36-9.49-5.91-2.33-1.06-5.19-1.1-8.02-1.63Z"/>
  <path class="cls-1" d="M150.63,360.12c.04,2.31-.74,2.75-3.32,2.56-1.8-.13-3.63.3-5.45.36-5.72.2-11.44.28-17.15.53-1.5.07-2.97.72-4.48.88-.97.1-2.35.11-2.92-.42-1.07-.99-1.94-2.32-2.45-3.65-.71-1.86.37-3.18,2.59-3.31,7.84-.46,15.68-.86,23.52-1.23,1.89-.09,3.8-.03,5.7.03,1.56.05,3.93,2.64,3.95,4.25Z"/>
  <path class="cls-1" d="M112.27,91.49c.49,4.87.91,9.82,1.51,14.75.42,3.45,1.11,6.88,1.62,10.32.28,1.88-.55,3.28-2.62,3.59-2.08.31-3.59-.4-4.42-2.47-2.42-6-2.58-12.22-2.52-18.49.02-1.79,0-3.58-.09-5.37-.14-2.98.6-3.59,3.77-2.96.77.15,1.53.34,2.76.62Z"/>
  <path class="cls-1" d="M128.2,293.74c4.69-.44,9.38-.81,14.05-1.36,2.54-.3,5.13,1.86,5.67,4.36.38,1.75-.89,3.1-2.83,3.16-4.76.14-9.52.2-14.26.49-2.93.18-5.83.72-8.75,1.07-1.71.2-3.13-.12-3.57-1.96-.19-.78-.39-1.56-.6-2.34-.45-1.63-.12-2.59,2.02-2.77,2.75-.23,5.46-.78,8.19-1.2.03.19.06.38.09.56Z"/>
  <path class="cls-1" d="M143.44,109.94c.05,5.35-2.11,6.76-7.05,4.77-1.5-.6-2.92-1.49-4.16-2.49-2.59-2.1-3.12-4.17-1.43-6.95,1.13-1.87,2.67-3.65,4.41-5.05,2.31-1.86,5.14-.62,6.58,2.73.64,1.5,1.07,3.08,1.46,4.66.21.86.15,1.78.19,2.33Z"/>
  <path class="cls-1" d="M90.35,109c0,1.5-2.41,3.02-4.93,3.35-2.64.35-4.3-.4-5.75-1.25-2.26-1.34-4.2-2.73-2.34-4.54.22-.21.41-.54.75-.58,2.35-.31,4.71-.71,7.12-.79,2.74-.09,3.23,1.2,4.17,2.04.69.62.78,1.39.97,1.77Z"/>
  <path class="cls-1" d="M434.92,337.18c-.44,4.18-5.76,7.59-9.16,5.3-1.8-1.22-3.11-4.14-3.1-6.29,0-2.28,1.25-4.83,4.2-6,3.41-1.35,4.41-1.26,6.11,1.81.89,1.61,1.32,3.45,1.96,5.18Z"/>
  <path class="cls-1" d="M66.24,335.37c-.06,2.49-2.75,5.94-4.75,6.54-2.19.66-3.51-.79-4.77-1.94-2.14-1.94-2.45-4.41-1.53-6.97.77-2.14,1.38-4.43,4.45-4.85,2.33-.32,4.59.96,5.72,3.67.53,1.27.68,2.67.88,3.55Z"/>
  <path class="cls-1" d="M160.7,191.3c-.38,3.1-1.81,5.22-4.69,5.95-2.5.63-4.09-.98-5.08-2.66-1.51-2.57-3.76-5.11-1.39-8.43,2.14-3.01,6.34-3.48,8.46-.49,1.2,1.69,1.82,3.75,2.69,5.64Z"/>
  <ellipse class="cls-1" cx="452.65" cy="93.36" rx="8.53" ry="26.94" transform="translate(-7.99 55.72) rotate(-6.98)"/>
</svg>